%TF.GenerationSoftware,KiCad,Pcbnew,(6.0.11)*%
%TF.CreationDate,2024-01-03T02:28:44+00:00*%
%TF.ProjectId,Tait_TM8XXX_TNC_Adapter,54616974-5f54-44d3-9858-58585f544e43,rev?*%
%TF.SameCoordinates,Original*%
%TF.FileFunction,Drillmap*%
%TF.FilePolarity,Positive*%
%FSLAX45Y45*%
G04 Gerber Fmt 4.5, Leading zero omitted, Abs format (unit mm)*
G04 Created by KiCad (PCBNEW (6.0.11)) date 2024-01-03 02:28:44*
%MOMM*%
%LPD*%
G01*
G04 APERTURE LIST*
%ADD10C,0.569539*%
%ADD11C,0.200000*%
%ADD12C,0.130000*%
%ADD13C,0.140000*%
G04 APERTURE END LIST*
D10*
X21253311Y-6320902D02*
X21248773Y-6322696D01*
X21210526Y-9378314D02*
X21213673Y-9381945D01*
X21487638Y-5164801D02*
X21487638Y-5164801D01*
X21272441Y-6315975D02*
X21267525Y-6316856D01*
X16061584Y-4931975D02*
X16064732Y-4928343D01*
X21487377Y-5154537D02*
X21487638Y-5164801D01*
X20456516Y-4964681D02*
X20461649Y-4964812D01*
X20427322Y-4958724D02*
X20431964Y-4960301D01*
X16007727Y-4962769D02*
X16012557Y-4961648D01*
X21387638Y-6314820D02*
X21287638Y-6314820D01*
X21195527Y-9353630D02*
X21197533Y-9358057D01*
X20461649Y-4964812D02*
X21287638Y-4964812D01*
X20362173Y-4875011D02*
X20362811Y-4880003D01*
X21447813Y-5045278D02*
X21453399Y-5053122D01*
X21188800Y-6399617D02*
X21188162Y-6404612D01*
X16073106Y-4916583D02*
X16075520Y-4912395D01*
X16075520Y-4912395D02*
X16077734Y-4908085D01*
X21188806Y-9329960D02*
X21189687Y-9334877D01*
X21435572Y-5030457D02*
X21441867Y-5037719D01*
X17280650Y-4814693D02*
X17280650Y-4814693D01*
X20366163Y-4894485D02*
X20367738Y-4899126D01*
X20446452Y-4963656D02*
X20451448Y-4964294D01*
X20361656Y-4814794D02*
X20361656Y-4814794D01*
X21192157Y-9344449D02*
X21193732Y-9349092D01*
X17240238Y-4846500D02*
X17245488Y-4844055D01*
X20361656Y-4814794D02*
X20361656Y-4864817D01*
X21192151Y-6385128D02*
X21190801Y-6389868D01*
X21267533Y-9412720D02*
X21272450Y-9413602D01*
X21189687Y-9334877D02*
X21190806Y-9339709D01*
X21346996Y-4973830D02*
X21356280Y-4976982D01*
X16012557Y-4961648D02*
X16017296Y-4960296D01*
X21399323Y-4999049D02*
X21407167Y-5004634D01*
X21213673Y-9381945D02*
X21216987Y-9385421D01*
X21227873Y-9394854D02*
X21231795Y-9397645D01*
X21235848Y-6329326D02*
X21231790Y-6331931D01*
X17255517Y-4838300D02*
X17260264Y-4835005D01*
X21287638Y-4964812D02*
X21297903Y-4965073D01*
X20361656Y-4864817D02*
X20361656Y-4864817D01*
X21414727Y-5010581D02*
X21421989Y-5016875D01*
X16017296Y-4960296D02*
X16021937Y-4958719D01*
X16077734Y-4908085D02*
X16079742Y-4903658D01*
X21467863Y-5078234D02*
X21471877Y-5087088D01*
X16087626Y-4854822D02*
X17200645Y-4854772D01*
X20381560Y-4924568D02*
X20384533Y-4928348D01*
X21287650Y-9414757D02*
X21387644Y-9414757D01*
X16067706Y-4924563D02*
X16070500Y-4920641D01*
X21187650Y-9314762D02*
X21187781Y-9319896D01*
X21485326Y-5134417D02*
X21486602Y-5144405D01*
X21235853Y-9400250D02*
X21240040Y-9402662D01*
X21382831Y-4989012D02*
X21391206Y-4993838D01*
X21207554Y-9374535D02*
X21210526Y-9378314D01*
X21318024Y-4967124D02*
X21327855Y-4968888D01*
X21231795Y-9397645D02*
X21235853Y-9400250D01*
X17223746Y-4852006D02*
X17229351Y-4850484D01*
X16086469Y-4879999D02*
X16087108Y-4875006D01*
X21407167Y-5004634D02*
X21414727Y-5010581D01*
X21453399Y-5053122D02*
X21458611Y-5061238D01*
X21287638Y-4964812D02*
X21287638Y-4964812D01*
X21471877Y-5087088D02*
X21475467Y-5096163D01*
X21481322Y-5114925D02*
X21483562Y-5124586D01*
X21202157Y-9366555D02*
X21204762Y-9370613D01*
X21216982Y-6344156D02*
X21213668Y-6347632D01*
X21193732Y-9349092D02*
X21195527Y-9353630D01*
X21421989Y-5016875D02*
X21428942Y-5023504D01*
X21244351Y-9404874D02*
X21248779Y-9406881D01*
X20362811Y-4880003D02*
X20363693Y-4884917D01*
X21248779Y-9406881D02*
X21253317Y-9408675D01*
X21202152Y-6363021D02*
X21199740Y-6367209D01*
X16087626Y-4854822D02*
X16087626Y-4854822D01*
X21187650Y-9314762D02*
X21187650Y-9314762D01*
X17212299Y-4854069D02*
X17218057Y-4853204D01*
X17234854Y-4848646D02*
X17240238Y-4846500D01*
X21189681Y-6394700D02*
X21188800Y-6399617D01*
X21204762Y-9370613D02*
X21207554Y-9374535D01*
X17269137Y-4827624D02*
X17273231Y-4823553D01*
X21272450Y-9413602D02*
X21277447Y-9414239D01*
X17260264Y-4835005D02*
X17264809Y-4831444D01*
X21374210Y-4984586D02*
X21382831Y-4989012D01*
X20369532Y-4903663D02*
X20371539Y-4908090D01*
X21187644Y-6414815D02*
X21187644Y-6414815D01*
X21387644Y-9414757D02*
X21387644Y-9414757D01*
X21277447Y-9414239D02*
X21282515Y-9414627D01*
X20398100Y-4941919D02*
X20401879Y-4944893D01*
X16083115Y-4894480D02*
X16084466Y-4889742D01*
X20394469Y-4938772D02*
X20398100Y-4941919D01*
X15997820Y-4964289D02*
X16002813Y-4963651D01*
X21190801Y-6389868D02*
X21189681Y-6394700D01*
X20409859Y-4950293D02*
X20414046Y-4952707D01*
X21441867Y-5037719D02*
X21447813Y-5045278D01*
X17277074Y-4819240D02*
X17280650Y-4814693D01*
X20376163Y-4916587D02*
X20378768Y-4920645D01*
X15992756Y-4964677D02*
X15997820Y-4964289D01*
X21204757Y-6358964D02*
X21202152Y-6363021D01*
X16087626Y-4864812D02*
X16087626Y-4854822D01*
X21190806Y-9339709D02*
X21192157Y-9344449D01*
X21199745Y-9362368D02*
X21202157Y-9366555D01*
X21458611Y-5061238D02*
X21463436Y-5069613D01*
X21287638Y-6314820D02*
X21282504Y-6314950D01*
X20364812Y-4889747D02*
X20366163Y-4894485D01*
X16039399Y-4950289D02*
X16043457Y-4947682D01*
X21282515Y-9414627D02*
X21287650Y-9414757D01*
X20405801Y-4947687D02*
X20409859Y-4950293D01*
X16079742Y-4903658D02*
X16081538Y-4899121D01*
X17245488Y-4844055D02*
X17250587Y-4841319D01*
X21487638Y-5164801D02*
X21487638Y-6214774D01*
X16030901Y-4954916D02*
X16035212Y-4952702D01*
X20451448Y-4964294D02*
X20456516Y-4964681D01*
X21240035Y-6326915D02*
X21235848Y-6329326D01*
X17273231Y-4823553D02*
X17277074Y-4819240D01*
X21253317Y-9408675D02*
X21257960Y-9410250D01*
X21257960Y-9410250D02*
X21262701Y-9411601D01*
X17229351Y-4850484D02*
X17234854Y-4848646D01*
X16087108Y-4875006D02*
X16087495Y-4869942D01*
X16087495Y-4869942D02*
X16087626Y-4864812D01*
X21187781Y-9319896D02*
X21188168Y-9324964D01*
X21213668Y-6347632D02*
X21210522Y-6351262D01*
X21224089Y-6337696D02*
X21220458Y-6340842D01*
X21188168Y-9324964D02*
X21188806Y-9329960D01*
X21220463Y-9388735D02*
X21224093Y-9391881D01*
X21267525Y-6316856D02*
X21262693Y-6317976D01*
X16058269Y-4935452D02*
X16061584Y-4931975D01*
X16047380Y-4944889D02*
X16051160Y-4941915D01*
X14587601Y-11196096D02*
X21487638Y-11195000D01*
X17218057Y-4853204D02*
X17223746Y-4852006D01*
X20418357Y-4954921D02*
X20422784Y-4956928D01*
X21356280Y-4976982D02*
X21365355Y-4980572D01*
X21475467Y-5096163D02*
X21478620Y-5105446D01*
X21387644Y-9414757D02*
X21487638Y-9514753D01*
X16087626Y-4864812D02*
X16087626Y-4864812D01*
X17264809Y-4831444D02*
X17269137Y-4827624D01*
X21188162Y-6404612D02*
X21187775Y-6409681D01*
X20363693Y-4884917D02*
X20364812Y-4889747D01*
X20422784Y-4956928D02*
X20427322Y-4958724D01*
X16035212Y-4952702D02*
X16039399Y-4950289D01*
X21391206Y-4993838D02*
X21399323Y-4999049D01*
X20373751Y-4912400D02*
X20376163Y-4916587D01*
X21231790Y-6331931D02*
X21227868Y-6334723D01*
X16043457Y-4947682D02*
X16047380Y-4944889D01*
X20390994Y-4935456D02*
X20394469Y-4938772D01*
X16081538Y-4899121D02*
X16083115Y-4894480D01*
X21327855Y-4968888D02*
X21337517Y-4971128D01*
X16084466Y-4889742D02*
X16085587Y-4884913D01*
X21257953Y-6319326D02*
X21253311Y-6320902D01*
X21193727Y-6380485D02*
X21192151Y-6385128D01*
X21483562Y-5124586D02*
X21485326Y-5134417D01*
X21207549Y-6355042D02*
X21204757Y-6358964D01*
X21463436Y-5069613D02*
X21467863Y-5078234D01*
X17200645Y-4854772D02*
X17206490Y-4854595D01*
X21244345Y-6324702D02*
X21240035Y-6326915D01*
X15987626Y-4964808D02*
X15987626Y-4964808D01*
X20361656Y-4864817D02*
X20361786Y-4869946D01*
X21337517Y-4971128D02*
X21346996Y-4973830D01*
X16002813Y-4963651D02*
X16007727Y-4962769D01*
X16064732Y-4928343D02*
X16067706Y-4924563D01*
X21262701Y-9411601D02*
X21267533Y-9412720D01*
X21216987Y-9385421D02*
X21220463Y-9388735D01*
X21282504Y-6314950D02*
X21277437Y-6315337D01*
X21262693Y-6317976D02*
X21257953Y-6319326D01*
X17250587Y-4841319D02*
X17255517Y-4838300D01*
X20431964Y-4960301D02*
X20436704Y-4961653D01*
X21387638Y-6314820D02*
X21387638Y-6314820D01*
X17200645Y-4854772D02*
X17200645Y-4854772D01*
X16085587Y-4884913D02*
X16086469Y-4879999D01*
X21428942Y-5023504D02*
X21435572Y-5030457D01*
X21197533Y-9358057D02*
X21199745Y-9362368D01*
X20384533Y-4928348D02*
X20387679Y-4931979D01*
X21227868Y-6334723D02*
X21224089Y-6337696D01*
X21240040Y-9402662D02*
X21244351Y-9404874D01*
X16051160Y-4941915D02*
X16054792Y-4938767D01*
X21478620Y-5105446D02*
X21481322Y-5114925D01*
X20436704Y-4961653D02*
X20441536Y-4962773D01*
X20361786Y-4869946D02*
X20362173Y-4875011D01*
X21287638Y-6314820D02*
X21287638Y-6314820D01*
X21487638Y-6214774D02*
X21387638Y-6314820D01*
X21248773Y-6322696D02*
X21244345Y-6324702D01*
X14587601Y-4965904D02*
X14587601Y-11196096D01*
X20378768Y-4920645D02*
X20381560Y-4924568D01*
X21365355Y-4980572D02*
X21374210Y-4984586D01*
X21287650Y-9414757D02*
X21287650Y-9414757D01*
X20401879Y-4944893D02*
X20405801Y-4947687D01*
X20371539Y-4908090D02*
X20373751Y-4912400D01*
X21308035Y-4965848D02*
X21318024Y-4967124D01*
X21195521Y-6375947D02*
X21193727Y-6380485D01*
X21197528Y-6371519D02*
X21195521Y-6375947D01*
X21487638Y-9514753D02*
X21487638Y-11195000D01*
X21187650Y-9314762D02*
X21187650Y-9314762D01*
X20441536Y-4962773D02*
X20446452Y-4963656D01*
X20461649Y-4964812D02*
X20461649Y-4964812D01*
X21487638Y-9514753D02*
X21487638Y-9514753D01*
X14587601Y-4965904D02*
X15987626Y-4964808D01*
X21187644Y-6414815D02*
X21187650Y-9314762D01*
X16070500Y-4920641D02*
X16073106Y-4916583D01*
X20387679Y-4931979D02*
X20390994Y-4935456D01*
X16026474Y-4956924D02*
X16030901Y-4954916D01*
X17206490Y-4854595D02*
X17212299Y-4854069D01*
X20367738Y-4899126D02*
X20369532Y-4903663D01*
X21487638Y-6214774D02*
X21487638Y-6214774D01*
X16021937Y-4958719D02*
X16026474Y-4956924D01*
X16054792Y-4938767D02*
X16058269Y-4935452D01*
X21486602Y-5144405D02*
X21487377Y-5154537D01*
X21224093Y-9391881D02*
X21227873Y-9394854D01*
X21187775Y-6409681D02*
X21187644Y-6414815D01*
X21220458Y-6340842D02*
X21216982Y-6344156D01*
X21210522Y-6351262D02*
X21207549Y-6355042D01*
X17280650Y-4814693D02*
X20361656Y-4814794D01*
X15987626Y-4964808D02*
X15992756Y-4964677D01*
X21297903Y-4965073D02*
X21308035Y-4965848D01*
X20414046Y-4952707D02*
X20418357Y-4954921D01*
X21277437Y-6315337D02*
X21272441Y-6315975D01*
X21199740Y-6367209D02*
X21197528Y-6371519D01*
D11*
D12*
X20280768Y-6471453D02*
X20410768Y-6601453D01*
X20410768Y-6471453D02*
X20280768Y-6601453D01*
D13*
X18093153Y-5135693D02*
G75*
G03*
X18093153Y-5135693I-70000J0D01*
G01*
X19689153Y-5135693D02*
G75*
G03*
X19689153Y-5135693I-70000J0D01*
G01*
D11*
X14816744Y-11535049D02*
X14816744Y-11335049D01*
X14864363Y-11335049D01*
X14892934Y-11344573D01*
X14911982Y-11363621D01*
X14921505Y-11382668D01*
X14931029Y-11420764D01*
X14931029Y-11449335D01*
X14921505Y-11487430D01*
X14911982Y-11506478D01*
X14892934Y-11525525D01*
X14864363Y-11535049D01*
X14816744Y-11535049D01*
X15016744Y-11535049D02*
X15016744Y-11401716D01*
X15016744Y-11439811D02*
X15026267Y-11420764D01*
X15035791Y-11411240D01*
X15054839Y-11401716D01*
X15073886Y-11401716D01*
X15140553Y-11535049D02*
X15140553Y-11401716D01*
X15140553Y-11335049D02*
X15131029Y-11344573D01*
X15140553Y-11354097D01*
X15150077Y-11344573D01*
X15140553Y-11335049D01*
X15140553Y-11354097D01*
X15264363Y-11535049D02*
X15245315Y-11525525D01*
X15235791Y-11506478D01*
X15235791Y-11335049D01*
X15369125Y-11535049D02*
X15350077Y-11525525D01*
X15340553Y-11506478D01*
X15340553Y-11335049D01*
X15597696Y-11535049D02*
X15597696Y-11335049D01*
X15664363Y-11477906D01*
X15731029Y-11335049D01*
X15731029Y-11535049D01*
X15911982Y-11535049D02*
X15911982Y-11430287D01*
X15902458Y-11411240D01*
X15883410Y-11401716D01*
X15845315Y-11401716D01*
X15826267Y-11411240D01*
X15911982Y-11525525D02*
X15892934Y-11535049D01*
X15845315Y-11535049D01*
X15826267Y-11525525D01*
X15816744Y-11506478D01*
X15816744Y-11487430D01*
X15826267Y-11468383D01*
X15845315Y-11458859D01*
X15892934Y-11458859D01*
X15911982Y-11449335D01*
X16007220Y-11401716D02*
X16007220Y-11601716D01*
X16007220Y-11411240D02*
X16026267Y-11401716D01*
X16064363Y-11401716D01*
X16083410Y-11411240D01*
X16092934Y-11420764D01*
X16102458Y-11439811D01*
X16102458Y-11496954D01*
X16092934Y-11516002D01*
X16083410Y-11525525D01*
X16064363Y-11535049D01*
X16026267Y-11535049D01*
X16007220Y-11525525D01*
X16188172Y-11516002D02*
X16197696Y-11525525D01*
X16188172Y-11535049D01*
X16178648Y-11525525D01*
X16188172Y-11516002D01*
X16188172Y-11535049D01*
X16188172Y-11411240D02*
X16197696Y-11420764D01*
X16188172Y-11430287D01*
X16178648Y-11420764D01*
X16188172Y-11411240D01*
X16188172Y-11430287D01*
D12*
X14429125Y-11799573D02*
X14559125Y-11929573D01*
X14559125Y-11799573D02*
X14429125Y-11929573D01*
D11*
X14921505Y-11955049D02*
X14807220Y-11955049D01*
X14864363Y-11955049D02*
X14864363Y-11755049D01*
X14845315Y-11783621D01*
X14826267Y-11802668D01*
X14807220Y-11812192D01*
X15007220Y-11936002D02*
X15016744Y-11945525D01*
X15007220Y-11955049D01*
X14997696Y-11945525D01*
X15007220Y-11936002D01*
X15007220Y-11955049D01*
X15083410Y-11755049D02*
X15207220Y-11755049D01*
X15140553Y-11831240D01*
X15169125Y-11831240D01*
X15188172Y-11840764D01*
X15197696Y-11850287D01*
X15207220Y-11869335D01*
X15207220Y-11916954D01*
X15197696Y-11936002D01*
X15188172Y-11945525D01*
X15169125Y-11955049D01*
X15111982Y-11955049D01*
X15092934Y-11945525D01*
X15083410Y-11936002D01*
X15331029Y-11755049D02*
X15350077Y-11755049D01*
X15369125Y-11764573D01*
X15378648Y-11774097D01*
X15388172Y-11793145D01*
X15397696Y-11831240D01*
X15397696Y-11878859D01*
X15388172Y-11916954D01*
X15378648Y-11936002D01*
X15369125Y-11945525D01*
X15350077Y-11955049D01*
X15331029Y-11955049D01*
X15311982Y-11945525D01*
X15302458Y-11936002D01*
X15292934Y-11916954D01*
X15283410Y-11878859D01*
X15283410Y-11831240D01*
X15292934Y-11793145D01*
X15302458Y-11774097D01*
X15311982Y-11764573D01*
X15331029Y-11755049D01*
X15521505Y-11755049D02*
X15540553Y-11755049D01*
X15559601Y-11764573D01*
X15569125Y-11774097D01*
X15578648Y-11793145D01*
X15588172Y-11831240D01*
X15588172Y-11878859D01*
X15578648Y-11916954D01*
X15569125Y-11936002D01*
X15559601Y-11945525D01*
X15540553Y-11955049D01*
X15521505Y-11955049D01*
X15502458Y-11945525D01*
X15492934Y-11936002D01*
X15483410Y-11916954D01*
X15473886Y-11878859D01*
X15473886Y-11831240D01*
X15483410Y-11793145D01*
X15492934Y-11774097D01*
X15502458Y-11764573D01*
X15521505Y-11755049D01*
X15673886Y-11955049D02*
X15673886Y-11821716D01*
X15673886Y-11840764D02*
X15683410Y-11831240D01*
X15702458Y-11821716D01*
X15731029Y-11821716D01*
X15750077Y-11831240D01*
X15759601Y-11850287D01*
X15759601Y-11955049D01*
X15759601Y-11850287D02*
X15769125Y-11831240D01*
X15788172Y-11821716D01*
X15816744Y-11821716D01*
X15835791Y-11831240D01*
X15845315Y-11850287D01*
X15845315Y-11955049D01*
X15940553Y-11955049D02*
X15940553Y-11821716D01*
X15940553Y-11840764D02*
X15950077Y-11831240D01*
X15969125Y-11821716D01*
X15997696Y-11821716D01*
X16016744Y-11831240D01*
X16026267Y-11850287D01*
X16026267Y-11955049D01*
X16026267Y-11850287D02*
X16035791Y-11831240D01*
X16054839Y-11821716D01*
X16083410Y-11821716D01*
X16102458Y-11831240D01*
X16111982Y-11850287D01*
X16111982Y-11955049D01*
X16502458Y-11745525D02*
X16331029Y-12002668D01*
X16759601Y-11755049D02*
X16778648Y-11755049D01*
X16797696Y-11764573D01*
X16807220Y-11774097D01*
X16816744Y-11793145D01*
X16826267Y-11831240D01*
X16826267Y-11878859D01*
X16816744Y-11916954D01*
X16807220Y-11936002D01*
X16797696Y-11945525D01*
X16778648Y-11955049D01*
X16759601Y-11955049D01*
X16740553Y-11945525D01*
X16731029Y-11936002D01*
X16721505Y-11916954D01*
X16711982Y-11878859D01*
X16711982Y-11831240D01*
X16721505Y-11793145D01*
X16731029Y-11774097D01*
X16740553Y-11764573D01*
X16759601Y-11755049D01*
X16911982Y-11936002D02*
X16921506Y-11945525D01*
X16911982Y-11955049D01*
X16902458Y-11945525D01*
X16911982Y-11936002D01*
X16911982Y-11955049D01*
X17045315Y-11755049D02*
X17064363Y-11755049D01*
X17083410Y-11764573D01*
X17092934Y-11774097D01*
X17102458Y-11793145D01*
X17111982Y-11831240D01*
X17111982Y-11878859D01*
X17102458Y-11916954D01*
X17092934Y-11936002D01*
X17083410Y-11945525D01*
X17064363Y-11955049D01*
X17045315Y-11955049D01*
X17026267Y-11945525D01*
X17016744Y-11936002D01*
X17007220Y-11916954D01*
X16997696Y-11878859D01*
X16997696Y-11831240D01*
X17007220Y-11793145D01*
X17016744Y-11774097D01*
X17026267Y-11764573D01*
X17045315Y-11755049D01*
X17292934Y-11755049D02*
X17197696Y-11755049D01*
X17188172Y-11850287D01*
X17197696Y-11840764D01*
X17216744Y-11831240D01*
X17264363Y-11831240D01*
X17283410Y-11840764D01*
X17292934Y-11850287D01*
X17302458Y-11869335D01*
X17302458Y-11916954D01*
X17292934Y-11936002D01*
X17283410Y-11945525D01*
X17264363Y-11955049D01*
X17216744Y-11955049D01*
X17197696Y-11945525D01*
X17188172Y-11936002D01*
X17492934Y-11955049D02*
X17378648Y-11955049D01*
X17435791Y-11955049D02*
X17435791Y-11755049D01*
X17416744Y-11783621D01*
X17397696Y-11802668D01*
X17378648Y-11812192D01*
X17569125Y-11774097D02*
X17578648Y-11764573D01*
X17597696Y-11755049D01*
X17645315Y-11755049D01*
X17664363Y-11764573D01*
X17673887Y-11774097D01*
X17683410Y-11793145D01*
X17683410Y-11812192D01*
X17673887Y-11840764D01*
X17559601Y-11955049D01*
X17683410Y-11955049D01*
X17759601Y-11755049D02*
X17759601Y-11793145D01*
X17835791Y-11755049D02*
X17835791Y-11793145D01*
X18131029Y-12031240D02*
X18121506Y-12021716D01*
X18102458Y-11993145D01*
X18092934Y-11974097D01*
X18083410Y-11945525D01*
X18073887Y-11897906D01*
X18073887Y-11859811D01*
X18083410Y-11812192D01*
X18092934Y-11783621D01*
X18102458Y-11764573D01*
X18121506Y-11736002D01*
X18131029Y-11726478D01*
X18311982Y-11955049D02*
X18197696Y-11955049D01*
X18254839Y-11955049D02*
X18254839Y-11755049D01*
X18235791Y-11783621D01*
X18216744Y-11802668D01*
X18197696Y-11812192D01*
X18550077Y-11955049D02*
X18550077Y-11755049D01*
X18635791Y-11955049D02*
X18635791Y-11850287D01*
X18626267Y-11831240D01*
X18607220Y-11821716D01*
X18578648Y-11821716D01*
X18559601Y-11831240D01*
X18550077Y-11840764D01*
X18759601Y-11955049D02*
X18740553Y-11945525D01*
X18731029Y-11936002D01*
X18721506Y-11916954D01*
X18721506Y-11859811D01*
X18731029Y-11840764D01*
X18740553Y-11831240D01*
X18759601Y-11821716D01*
X18788172Y-11821716D01*
X18807220Y-11831240D01*
X18816744Y-11840764D01*
X18826267Y-11859811D01*
X18826267Y-11916954D01*
X18816744Y-11936002D01*
X18807220Y-11945525D01*
X18788172Y-11955049D01*
X18759601Y-11955049D01*
X18940553Y-11955049D02*
X18921506Y-11945525D01*
X18911982Y-11926478D01*
X18911982Y-11755049D01*
X19092934Y-11945525D02*
X19073887Y-11955049D01*
X19035791Y-11955049D01*
X19016744Y-11945525D01*
X19007220Y-11926478D01*
X19007220Y-11850287D01*
X19016744Y-11831240D01*
X19035791Y-11821716D01*
X19073887Y-11821716D01*
X19092934Y-11831240D01*
X19102458Y-11850287D01*
X19102458Y-11869335D01*
X19007220Y-11888383D01*
X19169125Y-12031240D02*
X19178648Y-12021716D01*
X19197696Y-11993145D01*
X19207220Y-11974097D01*
X19216744Y-11945525D01*
X19226267Y-11897906D01*
X19226267Y-11859811D01*
X19216744Y-11812192D01*
X19207220Y-11783621D01*
X19197696Y-11764573D01*
X19178648Y-11736002D01*
X19169125Y-11726478D01*
X19531029Y-12031240D02*
X19521506Y-12021716D01*
X19502458Y-11993145D01*
X19492934Y-11974097D01*
X19483410Y-11945525D01*
X19473887Y-11897906D01*
X19473887Y-11859811D01*
X19483410Y-11812192D01*
X19492934Y-11783621D01*
X19502458Y-11764573D01*
X19521506Y-11736002D01*
X19531029Y-11726478D01*
X19607220Y-11821716D02*
X19607220Y-11955049D01*
X19607220Y-11840764D02*
X19616744Y-11831240D01*
X19635791Y-11821716D01*
X19664363Y-11821716D01*
X19683410Y-11831240D01*
X19692934Y-11850287D01*
X19692934Y-11955049D01*
X19816744Y-11955049D02*
X19797696Y-11945525D01*
X19788172Y-11936002D01*
X19778648Y-11916954D01*
X19778648Y-11859811D01*
X19788172Y-11840764D01*
X19797696Y-11831240D01*
X19816744Y-11821716D01*
X19845315Y-11821716D01*
X19864363Y-11831240D01*
X19873887Y-11840764D01*
X19883410Y-11859811D01*
X19883410Y-11916954D01*
X19873887Y-11936002D01*
X19864363Y-11945525D01*
X19845315Y-11955049D01*
X19816744Y-11955049D01*
X19940553Y-11821716D02*
X20016744Y-11821716D01*
X19969125Y-11755049D02*
X19969125Y-11926478D01*
X19978648Y-11945525D01*
X19997696Y-11955049D01*
X20016744Y-11955049D01*
X20235791Y-11821716D02*
X20235791Y-12021716D01*
X20235791Y-11831240D02*
X20254839Y-11821716D01*
X20292934Y-11821716D01*
X20311982Y-11831240D01*
X20321506Y-11840764D01*
X20331029Y-11859811D01*
X20331029Y-11916954D01*
X20321506Y-11936002D01*
X20311982Y-11945525D01*
X20292934Y-11955049D01*
X20254839Y-11955049D01*
X20235791Y-11945525D01*
X20445315Y-11955049D02*
X20426267Y-11945525D01*
X20416744Y-11926478D01*
X20416744Y-11755049D01*
X20607220Y-11955049D02*
X20607220Y-11850287D01*
X20597696Y-11831240D01*
X20578648Y-11821716D01*
X20540553Y-11821716D01*
X20521506Y-11831240D01*
X20607220Y-11945525D02*
X20588172Y-11955049D01*
X20540553Y-11955049D01*
X20521506Y-11945525D01*
X20511982Y-11926478D01*
X20511982Y-11907430D01*
X20521506Y-11888383D01*
X20540553Y-11878859D01*
X20588172Y-11878859D01*
X20607220Y-11869335D01*
X20673887Y-11821716D02*
X20750077Y-11821716D01*
X20702458Y-11755049D02*
X20702458Y-11926478D01*
X20711982Y-11945525D01*
X20731029Y-11955049D01*
X20750077Y-11955049D01*
X20892934Y-11945525D02*
X20873887Y-11955049D01*
X20835791Y-11955049D01*
X20816744Y-11945525D01*
X20807220Y-11926478D01*
X20807220Y-11850287D01*
X20816744Y-11831240D01*
X20835791Y-11821716D01*
X20873887Y-11821716D01*
X20892934Y-11831240D01*
X20902458Y-11850287D01*
X20902458Y-11869335D01*
X20807220Y-11888383D01*
X21073887Y-11955049D02*
X21073887Y-11755049D01*
X21073887Y-11945525D02*
X21054839Y-11955049D01*
X21016744Y-11955049D01*
X20997696Y-11945525D01*
X20988172Y-11936002D01*
X20978648Y-11916954D01*
X20978648Y-11859811D01*
X20988172Y-11840764D01*
X20997696Y-11831240D01*
X21016744Y-11821716D01*
X21054839Y-11821716D01*
X21073887Y-11831240D01*
X21150077Y-12031240D02*
X21159601Y-12021716D01*
X21178648Y-11993145D01*
X21188172Y-11974097D01*
X21197696Y-11945525D01*
X21207220Y-11897906D01*
X21207220Y-11859811D01*
X21197696Y-11812192D01*
X21188172Y-11783621D01*
X21178648Y-11764573D01*
X21159601Y-11736002D01*
X21150077Y-11726478D01*
D13*
X14559125Y-12128573D02*
G75*
G03*
X14559125Y-12128573I-70000J0D01*
G01*
D11*
X14921505Y-12219049D02*
X14807220Y-12219049D01*
X14864363Y-12219049D02*
X14864363Y-12019049D01*
X14845315Y-12047621D01*
X14826267Y-12066668D01*
X14807220Y-12076192D01*
X15007220Y-12200002D02*
X15016744Y-12209525D01*
X15007220Y-12219049D01*
X14997696Y-12209525D01*
X15007220Y-12200002D01*
X15007220Y-12219049D01*
X15188172Y-12085716D02*
X15188172Y-12219049D01*
X15140553Y-12009525D02*
X15092934Y-12152383D01*
X15216744Y-12152383D01*
X15331029Y-12019049D02*
X15350077Y-12019049D01*
X15369125Y-12028573D01*
X15378648Y-12038097D01*
X15388172Y-12057145D01*
X15397696Y-12095240D01*
X15397696Y-12142859D01*
X15388172Y-12180954D01*
X15378648Y-12200002D01*
X15369125Y-12209525D01*
X15350077Y-12219049D01*
X15331029Y-12219049D01*
X15311982Y-12209525D01*
X15302458Y-12200002D01*
X15292934Y-12180954D01*
X15283410Y-12142859D01*
X15283410Y-12095240D01*
X15292934Y-12057145D01*
X15302458Y-12038097D01*
X15311982Y-12028573D01*
X15331029Y-12019049D01*
X15521505Y-12019049D02*
X15540553Y-12019049D01*
X15559601Y-12028573D01*
X15569125Y-12038097D01*
X15578648Y-12057145D01*
X15588172Y-12095240D01*
X15588172Y-12142859D01*
X15578648Y-12180954D01*
X15569125Y-12200002D01*
X15559601Y-12209525D01*
X15540553Y-12219049D01*
X15521505Y-12219049D01*
X15502458Y-12209525D01*
X15492934Y-12200002D01*
X15483410Y-12180954D01*
X15473886Y-12142859D01*
X15473886Y-12095240D01*
X15483410Y-12057145D01*
X15492934Y-12038097D01*
X15502458Y-12028573D01*
X15521505Y-12019049D01*
X15673886Y-12219049D02*
X15673886Y-12085716D01*
X15673886Y-12104764D02*
X15683410Y-12095240D01*
X15702458Y-12085716D01*
X15731029Y-12085716D01*
X15750077Y-12095240D01*
X15759601Y-12114287D01*
X15759601Y-12219049D01*
X15759601Y-12114287D02*
X15769125Y-12095240D01*
X15788172Y-12085716D01*
X15816744Y-12085716D01*
X15835791Y-12095240D01*
X15845315Y-12114287D01*
X15845315Y-12219049D01*
X15940553Y-12219049D02*
X15940553Y-12085716D01*
X15940553Y-12104764D02*
X15950077Y-12095240D01*
X15969125Y-12085716D01*
X15997696Y-12085716D01*
X16016744Y-12095240D01*
X16026267Y-12114287D01*
X16026267Y-12219049D01*
X16026267Y-12114287D02*
X16035791Y-12095240D01*
X16054839Y-12085716D01*
X16083410Y-12085716D01*
X16102458Y-12095240D01*
X16111982Y-12114287D01*
X16111982Y-12219049D01*
X16502458Y-12009525D02*
X16331029Y-12266668D01*
X16759601Y-12019049D02*
X16778648Y-12019049D01*
X16797696Y-12028573D01*
X16807220Y-12038097D01*
X16816744Y-12057145D01*
X16826267Y-12095240D01*
X16826267Y-12142859D01*
X16816744Y-12180954D01*
X16807220Y-12200002D01*
X16797696Y-12209525D01*
X16778648Y-12219049D01*
X16759601Y-12219049D01*
X16740553Y-12209525D01*
X16731029Y-12200002D01*
X16721505Y-12180954D01*
X16711982Y-12142859D01*
X16711982Y-12095240D01*
X16721505Y-12057145D01*
X16731029Y-12038097D01*
X16740553Y-12028573D01*
X16759601Y-12019049D01*
X16911982Y-12200002D02*
X16921506Y-12209525D01*
X16911982Y-12219049D01*
X16902458Y-12209525D01*
X16911982Y-12200002D01*
X16911982Y-12219049D01*
X17045315Y-12019049D02*
X17064363Y-12019049D01*
X17083410Y-12028573D01*
X17092934Y-12038097D01*
X17102458Y-12057145D01*
X17111982Y-12095240D01*
X17111982Y-12142859D01*
X17102458Y-12180954D01*
X17092934Y-12200002D01*
X17083410Y-12209525D01*
X17064363Y-12219049D01*
X17045315Y-12219049D01*
X17026267Y-12209525D01*
X17016744Y-12200002D01*
X17007220Y-12180954D01*
X16997696Y-12142859D01*
X16997696Y-12095240D01*
X17007220Y-12057145D01*
X17016744Y-12038097D01*
X17026267Y-12028573D01*
X17045315Y-12019049D01*
X17292934Y-12019049D02*
X17197696Y-12019049D01*
X17188172Y-12114287D01*
X17197696Y-12104764D01*
X17216744Y-12095240D01*
X17264363Y-12095240D01*
X17283410Y-12104764D01*
X17292934Y-12114287D01*
X17302458Y-12133335D01*
X17302458Y-12180954D01*
X17292934Y-12200002D01*
X17283410Y-12209525D01*
X17264363Y-12219049D01*
X17216744Y-12219049D01*
X17197696Y-12209525D01*
X17188172Y-12200002D01*
X17483410Y-12019049D02*
X17388172Y-12019049D01*
X17378648Y-12114287D01*
X17388172Y-12104764D01*
X17407220Y-12095240D01*
X17454839Y-12095240D01*
X17473887Y-12104764D01*
X17483410Y-12114287D01*
X17492934Y-12133335D01*
X17492934Y-12180954D01*
X17483410Y-12200002D01*
X17473887Y-12209525D01*
X17454839Y-12219049D01*
X17407220Y-12219049D01*
X17388172Y-12209525D01*
X17378648Y-12200002D01*
X17683410Y-12219049D02*
X17569125Y-12219049D01*
X17626267Y-12219049D02*
X17626267Y-12019049D01*
X17607220Y-12047621D01*
X17588172Y-12066668D01*
X17569125Y-12076192D01*
X17759601Y-12019049D02*
X17759601Y-12057145D01*
X17835791Y-12019049D02*
X17835791Y-12057145D01*
X18131029Y-12295240D02*
X18121506Y-12285716D01*
X18102458Y-12257145D01*
X18092934Y-12238097D01*
X18083410Y-12209525D01*
X18073887Y-12161906D01*
X18073887Y-12123811D01*
X18083410Y-12076192D01*
X18092934Y-12047621D01*
X18102458Y-12028573D01*
X18121506Y-12000002D01*
X18131029Y-11990478D01*
X18197696Y-12038097D02*
X18207220Y-12028573D01*
X18226267Y-12019049D01*
X18273887Y-12019049D01*
X18292934Y-12028573D01*
X18302458Y-12038097D01*
X18311982Y-12057145D01*
X18311982Y-12076192D01*
X18302458Y-12104764D01*
X18188172Y-12219049D01*
X18311982Y-12219049D01*
X18550077Y-12219049D02*
X18550077Y-12019049D01*
X18635791Y-12219049D02*
X18635791Y-12114287D01*
X18626267Y-12095240D01*
X18607220Y-12085716D01*
X18578648Y-12085716D01*
X18559601Y-12095240D01*
X18550077Y-12104764D01*
X18759601Y-12219049D02*
X18740553Y-12209525D01*
X18731029Y-12200002D01*
X18721506Y-12180954D01*
X18721506Y-12123811D01*
X18731029Y-12104764D01*
X18740553Y-12095240D01*
X18759601Y-12085716D01*
X18788172Y-12085716D01*
X18807220Y-12095240D01*
X18816744Y-12104764D01*
X18826267Y-12123811D01*
X18826267Y-12180954D01*
X18816744Y-12200002D01*
X18807220Y-12209525D01*
X18788172Y-12219049D01*
X18759601Y-12219049D01*
X18940553Y-12219049D02*
X18921506Y-12209525D01*
X18911982Y-12190478D01*
X18911982Y-12019049D01*
X19092934Y-12209525D02*
X19073887Y-12219049D01*
X19035791Y-12219049D01*
X19016744Y-12209525D01*
X19007220Y-12190478D01*
X19007220Y-12114287D01*
X19016744Y-12095240D01*
X19035791Y-12085716D01*
X19073887Y-12085716D01*
X19092934Y-12095240D01*
X19102458Y-12114287D01*
X19102458Y-12133335D01*
X19007220Y-12152383D01*
X19178648Y-12209525D02*
X19197696Y-12219049D01*
X19235791Y-12219049D01*
X19254839Y-12209525D01*
X19264363Y-12190478D01*
X19264363Y-12180954D01*
X19254839Y-12161906D01*
X19235791Y-12152383D01*
X19207220Y-12152383D01*
X19188172Y-12142859D01*
X19178648Y-12123811D01*
X19178648Y-12114287D01*
X19188172Y-12095240D01*
X19207220Y-12085716D01*
X19235791Y-12085716D01*
X19254839Y-12095240D01*
X19331029Y-12295240D02*
X19340553Y-12285716D01*
X19359601Y-12257145D01*
X19369125Y-12238097D01*
X19378648Y-12209525D01*
X19388172Y-12161906D01*
X19388172Y-12123811D01*
X19378648Y-12076192D01*
X19369125Y-12047621D01*
X19359601Y-12028573D01*
X19340553Y-12000002D01*
X19331029Y-11990478D01*
X19692934Y-12295240D02*
X19683410Y-12285716D01*
X19664363Y-12257145D01*
X19654839Y-12238097D01*
X19645315Y-12209525D01*
X19635791Y-12161906D01*
X19635791Y-12123811D01*
X19645315Y-12076192D01*
X19654839Y-12047621D01*
X19664363Y-12028573D01*
X19683410Y-12000002D01*
X19692934Y-11990478D01*
X19769125Y-12085716D02*
X19769125Y-12219049D01*
X19769125Y-12104764D02*
X19778648Y-12095240D01*
X19797696Y-12085716D01*
X19826267Y-12085716D01*
X19845315Y-12095240D01*
X19854839Y-12114287D01*
X19854839Y-12219049D01*
X19978648Y-12219049D02*
X19959601Y-12209525D01*
X19950077Y-12200002D01*
X19940553Y-12180954D01*
X19940553Y-12123811D01*
X19950077Y-12104764D01*
X19959601Y-12095240D01*
X19978648Y-12085716D01*
X20007220Y-12085716D01*
X20026267Y-12095240D01*
X20035791Y-12104764D01*
X20045315Y-12123811D01*
X20045315Y-12180954D01*
X20035791Y-12200002D01*
X20026267Y-12209525D01*
X20007220Y-12219049D01*
X19978648Y-12219049D01*
X20102458Y-12085716D02*
X20178648Y-12085716D01*
X20131029Y-12019049D02*
X20131029Y-12190478D01*
X20140553Y-12209525D01*
X20159601Y-12219049D01*
X20178648Y-12219049D01*
X20397696Y-12085716D02*
X20397696Y-12285716D01*
X20397696Y-12095240D02*
X20416744Y-12085716D01*
X20454839Y-12085716D01*
X20473887Y-12095240D01*
X20483410Y-12104764D01*
X20492934Y-12123811D01*
X20492934Y-12180954D01*
X20483410Y-12200002D01*
X20473887Y-12209525D01*
X20454839Y-12219049D01*
X20416744Y-12219049D01*
X20397696Y-12209525D01*
X20607220Y-12219049D02*
X20588172Y-12209525D01*
X20578648Y-12190478D01*
X20578648Y-12019049D01*
X20769125Y-12219049D02*
X20769125Y-12114287D01*
X20759601Y-12095240D01*
X20740553Y-12085716D01*
X20702458Y-12085716D01*
X20683410Y-12095240D01*
X20769125Y-12209525D02*
X20750077Y-12219049D01*
X20702458Y-12219049D01*
X20683410Y-12209525D01*
X20673887Y-12190478D01*
X20673887Y-12171430D01*
X20683410Y-12152383D01*
X20702458Y-12142859D01*
X20750077Y-12142859D01*
X20769125Y-12133335D01*
X20835791Y-12085716D02*
X20911982Y-12085716D01*
X20864363Y-12019049D02*
X20864363Y-12190478D01*
X20873887Y-12209525D01*
X20892934Y-12219049D01*
X20911982Y-12219049D01*
X21054839Y-12209525D02*
X21035791Y-12219049D01*
X20997696Y-12219049D01*
X20978648Y-12209525D01*
X20969125Y-12190478D01*
X20969125Y-12114287D01*
X20978648Y-12095240D01*
X20997696Y-12085716D01*
X21035791Y-12085716D01*
X21054839Y-12095240D01*
X21064363Y-12114287D01*
X21064363Y-12133335D01*
X20969125Y-12152383D01*
X21235791Y-12219049D02*
X21235791Y-12019049D01*
X21235791Y-12209525D02*
X21216744Y-12219049D01*
X21178648Y-12219049D01*
X21159601Y-12209525D01*
X21150077Y-12200002D01*
X21140553Y-12180954D01*
X21140553Y-12123811D01*
X21150077Y-12104764D01*
X21159601Y-12095240D01*
X21178648Y-12085716D01*
X21216744Y-12085716D01*
X21235791Y-12095240D01*
X21311982Y-12295240D02*
X21321506Y-12285716D01*
X21340553Y-12257145D01*
X21350077Y-12238097D01*
X21359601Y-12209525D01*
X21369125Y-12161906D01*
X21369125Y-12123811D01*
X21359601Y-12076192D01*
X21350077Y-12047621D01*
X21340553Y-12028573D01*
X21321506Y-12000002D01*
X21311982Y-11990478D01*
M02*
