G04 #@! TF.GenerationSoftware,KiCad,Pcbnew,(6.0.11)*
G04 #@! TF.CreationDate,2024-01-03T02:28:53+00:00*
G04 #@! TF.ProjectId,Tait_TM8XXX_TNC_Adapter,54616974-5f54-44d3-9858-58585f544e43,rev?*
G04 #@! TF.SameCoordinates,Original*
G04 #@! TF.FileFunction,Copper,L2,Bot*
G04 #@! TF.FilePolarity,Positive*
%FSLAX46Y46*%
G04 Gerber Fmt 4.6, Leading zero omitted, Abs format (unit mm)*
G04 Created by KiCad (PCBNEW (6.0.11)) date 2024-01-03 02:28:53*
%MOMM*%
%LPD*%
G01*
G04 APERTURE LIST*
G04 Aperture macros list*
%AMFreePoly0*
4,1,22,0.500000,-0.750000,0.000000,-0.750000,0.000000,-0.745033,-0.079941,-0.743568,-0.215256,-0.701293,-0.333266,-0.622738,-0.424486,-0.514219,-0.481581,-0.384460,-0.499164,-0.250000,-0.500000,-0.250000,-0.500000,0.250000,-0.499164,0.250000,-0.499963,0.256109,-0.478152,0.396186,-0.417904,0.524511,-0.324060,0.630769,-0.204165,0.706417,-0.067858,0.745374,0.000000,0.744959,0.000000,0.750000,
0.500000,0.750000,0.500000,-0.750000,0.500000,-0.750000,$1*%
%AMFreePoly1*
4,1,20,0.000000,0.744959,0.073905,0.744508,0.209726,0.703889,0.328688,0.626782,0.421226,0.519385,0.479903,0.390333,0.500000,0.250000,0.500000,-0.250000,0.499851,-0.262216,0.476331,-0.402017,0.414519,-0.529596,0.319384,-0.634700,0.198574,-0.708877,0.061801,-0.746166,0.000000,-0.745033,0.000000,-0.750000,-0.500000,-0.750000,-0.500000,0.750000,0.000000,0.750000,0.000000,0.744959,
0.000000,0.744959,$1*%
G04 Aperture macros list end*
G04 #@! TA.AperFunction,ComponentPad*
%ADD10C,5.000000*%
G04 #@! TD*
G04 #@! TA.AperFunction,ComponentPad*
%ADD11C,1.100000*%
G04 #@! TD*
G04 #@! TA.AperFunction,ComponentPad*
%ADD12C,6.400000*%
G04 #@! TD*
G04 #@! TA.AperFunction,SMDPad,CuDef*
%ADD13FreePoly0,0.000000*%
G04 #@! TD*
G04 #@! TA.AperFunction,SMDPad,CuDef*
%ADD14FreePoly1,0.000000*%
G04 #@! TD*
G04 #@! TA.AperFunction,ViaPad*
%ADD15C,0.800000*%
G04 #@! TD*
G04 #@! TA.AperFunction,Conductor*
%ADD16C,0.400000*%
G04 #@! TD*
G04 APERTURE END LIST*
D10*
X175716525Y-51356930D03*
X200706525Y-51356930D03*
D11*
X193751525Y-50156930D03*
X190981525Y-50156930D03*
X188211525Y-50156930D03*
X185441525Y-50156930D03*
X182671525Y-50156930D03*
X192366525Y-50156930D03*
X189596525Y-50156930D03*
X186826525Y-50156930D03*
X184056525Y-50156930D03*
D12*
X210876503Y-53647987D03*
X153876015Y-103647461D03*
X210876503Y-103647461D03*
X153876015Y-53647987D03*
D13*
X182738000Y-58166000D03*
D14*
X184038000Y-58166000D03*
D13*
X186690000Y-58166000D03*
D14*
X187990000Y-58166000D03*
D15*
X207772000Y-81280000D03*
X153860000Y-62460000D03*
X192532000Y-52578000D03*
X147730000Y-91230000D03*
X157730000Y-51230000D03*
X153890000Y-94890000D03*
X212730000Y-61230000D03*
X167730000Y-51230000D03*
X207730000Y-106230000D03*
X147730000Y-71230000D03*
X147730000Y-101230000D03*
X167730000Y-106230000D03*
X157730000Y-106230000D03*
X197358000Y-85598000D03*
X187730000Y-106230000D03*
X197730000Y-106230000D03*
X212730000Y-96230000D03*
X147700000Y-51450000D03*
X147730000Y-61230000D03*
X207730000Y-96230000D03*
X147730000Y-81230000D03*
X177730000Y-106230000D03*
X197690000Y-73090000D03*
X197850000Y-78180000D03*
X189992000Y-59436000D03*
X192278000Y-61722000D03*
X197866000Y-75692000D03*
D16*
X197612000Y-82550000D02*
X182738000Y-67676000D01*
X207772000Y-81280000D02*
X206502000Y-82550000D01*
X206502000Y-82550000D02*
X197612000Y-82550000D01*
X182738000Y-67676000D02*
X182738000Y-58166000D01*
X184038000Y-58166000D02*
X184056525Y-58147475D01*
X184056525Y-58147475D02*
X184056525Y-50156930D01*
X197690000Y-73090000D02*
X193751525Y-69151525D01*
X193751525Y-69151525D02*
X193751525Y-50156930D01*
X190981525Y-71311525D02*
X190981525Y-50156930D01*
X197850000Y-78180000D02*
X190981525Y-71311525D01*
X186690000Y-58166000D02*
X186826525Y-58029475D01*
X186826525Y-58029475D02*
X186826525Y-50156930D01*
X197866000Y-75692000D02*
X192278000Y-70104000D01*
X188722000Y-58166000D02*
X187990000Y-58166000D01*
X192278000Y-70104000D02*
X192278000Y-61722000D01*
X189992000Y-59436000D02*
X188722000Y-58166000D01*
G04 #@! TA.AperFunction,Conductor*
G36*
X173923393Y-48655467D02*
G01*
X173991513Y-48675471D01*
X174038004Y-48729128D01*
X174048106Y-48799403D01*
X174018611Y-48863982D01*
X173990345Y-48888204D01*
X173970804Y-48900462D01*
X173967968Y-48902734D01*
X173967961Y-48902739D01*
X173746250Y-49080363D01*
X173700034Y-49117389D01*
X173649491Y-49168464D01*
X173486433Y-49333239D01*
X173455991Y-49364001D01*
X173453750Y-49366859D01*
X173250175Y-49626489D01*
X173241911Y-49637028D01*
X173240018Y-49640117D01*
X173240016Y-49640120D01*
X173194986Y-49713603D01*
X173060630Y-49932851D01*
X173059105Y-49936136D01*
X173059103Y-49936140D01*
X172958921Y-50151965D01*
X172914552Y-50247550D01*
X172884111Y-50339596D01*
X172810863Y-50561077D01*
X172805612Y-50576953D01*
X172804876Y-50580508D01*
X172804875Y-50580511D01*
X172738114Y-50902889D01*
X172735255Y-50916694D01*
X172719641Y-51091642D01*
X172710330Y-51195978D01*
X172704413Y-51262271D01*
X172704508Y-51265901D01*
X172704508Y-51265902D01*
X172712688Y-51578293D01*
X172713495Y-51609101D01*
X172762381Y-51952590D01*
X172850422Y-52288183D01*
X172976452Y-52611433D01*
X172978149Y-52614638D01*
X173111638Y-52866755D01*
X173138800Y-52918056D01*
X173140850Y-52921039D01*
X173140852Y-52921042D01*
X173333258Y-53200994D01*
X173333264Y-53201001D01*
X173335315Y-53203986D01*
X173563391Y-53465435D01*
X173566076Y-53467878D01*
X173775793Y-53658705D01*
X173820006Y-53698936D01*
X174101758Y-53901396D01*
X174404913Y-54070130D01*
X174725453Y-54202902D01*
X174728947Y-54203897D01*
X174728949Y-54203898D01*
X175055628Y-54296955D01*
X175055633Y-54296956D01*
X175059129Y-54297952D01*
X175255829Y-54330163D01*
X175397937Y-54353434D01*
X175397944Y-54353435D01*
X175401518Y-54354020D01*
X175574801Y-54362192D01*
X175744456Y-54370193D01*
X175744457Y-54370193D01*
X175748083Y-54370364D01*
X175756940Y-54369760D01*
X176090598Y-54347014D01*
X176090606Y-54347013D01*
X176094229Y-54346766D01*
X176097804Y-54346103D01*
X176097807Y-54346103D01*
X176431804Y-54284200D01*
X176431808Y-54284199D01*
X176435369Y-54283539D01*
X176766981Y-54181522D01*
X177084670Y-54042066D01*
X177329036Y-53899271D01*
X177381085Y-53868856D01*
X177381087Y-53868855D01*
X177384225Y-53867021D01*
X177387134Y-53864837D01*
X177658769Y-53660888D01*
X177658773Y-53660885D01*
X177661676Y-53658705D01*
X177913344Y-53419880D01*
X178135895Y-53153713D01*
X178326378Y-52863729D01*
X178476407Y-52565430D01*
X178480642Y-52557010D01*
X178480645Y-52557002D01*
X178482269Y-52553774D01*
X178565474Y-52326408D01*
X178600254Y-52231367D01*
X178600255Y-52231363D01*
X178601502Y-52227956D01*
X178602347Y-52224434D01*
X178602350Y-52224426D01*
X178681649Y-51894121D01*
X178681650Y-51894117D01*
X178682496Y-51890592D01*
X178694169Y-51794134D01*
X178723841Y-51548934D01*
X178723841Y-51548927D01*
X178724177Y-51546155D01*
X178724730Y-51528580D01*
X178728926Y-51395043D01*
X179018739Y-51395043D01*
X179044655Y-51609207D01*
X179046302Y-51614561D01*
X179046303Y-51614565D01*
X179066797Y-51681181D01*
X179108088Y-51815396D01*
X179110659Y-51820377D01*
X179162758Y-51921317D01*
X179207030Y-52007094D01*
X179210445Y-52011544D01*
X179334940Y-52173790D01*
X179334944Y-52173794D01*
X179338356Y-52178241D01*
X179342505Y-52182016D01*
X179493767Y-52319654D01*
X179493770Y-52319656D01*
X179497914Y-52323427D01*
X179502666Y-52326408D01*
X179675904Y-52435081D01*
X179675908Y-52435083D01*
X179680660Y-52438064D01*
X179880818Y-52518527D01*
X180092062Y-52562274D01*
X180096673Y-52562540D01*
X180096674Y-52562540D01*
X180144977Y-52565325D01*
X180144981Y-52565325D01*
X180146800Y-52565430D01*
X180286260Y-52565430D01*
X180289047Y-52565181D01*
X180289053Y-52565181D01*
X180355765Y-52559227D01*
X180446397Y-52551138D01*
X180573265Y-52516431D01*
X180649061Y-52495696D01*
X180649065Y-52495695D01*
X180654477Y-52494214D01*
X180849188Y-52401341D01*
X181024376Y-52275456D01*
X181174502Y-52120538D01*
X181274691Y-51971440D01*
X181291690Y-51946144D01*
X181291690Y-51946143D01*
X181294822Y-51941483D01*
X181315613Y-51894121D01*
X181379276Y-51749091D01*
X181381533Y-51743950D01*
X181431893Y-51534185D01*
X181441952Y-51359727D01*
X181443988Y-51324424D01*
X181443988Y-51324421D01*
X181444311Y-51318817D01*
X181422377Y-51137561D01*
X181419069Y-51110222D01*
X181419069Y-51110221D01*
X181418395Y-51104653D01*
X181415816Y-51096268D01*
X181356610Y-50903821D01*
X181354962Y-50898464D01*
X181282273Y-50757630D01*
X181258591Y-50711747D01*
X181258590Y-50711746D01*
X181256020Y-50706766D01*
X181203941Y-50638895D01*
X181128110Y-50540070D01*
X181128106Y-50540066D01*
X181124694Y-50535619D01*
X181033801Y-50452913D01*
X180969283Y-50394206D01*
X180969280Y-50394204D01*
X180965136Y-50390433D01*
X180958793Y-50386454D01*
X180787146Y-50278779D01*
X180787142Y-50278777D01*
X180782390Y-50275796D01*
X180582232Y-50195333D01*
X180370988Y-50151586D01*
X180366377Y-50151320D01*
X180366376Y-50151320D01*
X180318073Y-50148535D01*
X180318069Y-50148535D01*
X180316250Y-50148430D01*
X180176790Y-50148430D01*
X180174003Y-50148679D01*
X180173997Y-50148679D01*
X180111164Y-50154287D01*
X180016653Y-50162722D01*
X179901610Y-50194194D01*
X179813989Y-50218164D01*
X179813985Y-50218165D01*
X179808573Y-50219646D01*
X179613862Y-50312519D01*
X179477988Y-50410154D01*
X179447691Y-50431925D01*
X179438674Y-50438404D01*
X179434767Y-50442436D01*
X179300963Y-50580511D01*
X179288548Y-50593322D01*
X179208970Y-50711747D01*
X179173402Y-50764678D01*
X179168228Y-50772377D01*
X179081517Y-50969910D01*
X179049168Y-51104653D01*
X179034519Y-51165673D01*
X179031157Y-51179675D01*
X179028201Y-51230939D01*
X179020937Y-51356930D01*
X179018739Y-51395043D01*
X178728926Y-51395043D01*
X178730036Y-51359727D01*
X178730124Y-51356930D01*
X178728250Y-51324424D01*
X178710361Y-51014176D01*
X178710360Y-51014171D01*
X178710152Y-51010556D01*
X178690121Y-50895784D01*
X178651125Y-50672345D01*
X178651123Y-50672338D01*
X178650501Y-50668772D01*
X178643669Y-50645705D01*
X178597019Y-50488219D01*
X178551962Y-50336110D01*
X178548021Y-50326871D01*
X178469201Y-50142080D01*
X181608007Y-50142080D01*
X181609213Y-50156437D01*
X181624493Y-50338402D01*
X181625377Y-50348934D01*
X181682594Y-50548475D01*
X181685412Y-50553957D01*
X181685413Y-50553961D01*
X181758917Y-50696983D01*
X181777480Y-50733103D01*
X181906419Y-50895784D01*
X181911106Y-50899773D01*
X181911109Y-50899776D01*
X182058284Y-51025031D01*
X182064501Y-51030322D01*
X182245705Y-51131594D01*
X182443128Y-51195740D01*
X182649250Y-51220319D01*
X182655385Y-51219847D01*
X182655387Y-51219847D01*
X182850080Y-51204866D01*
X182850085Y-51204865D01*
X182856221Y-51204393D01*
X182862151Y-51202737D01*
X182862153Y-51202737D01*
X182994732Y-51165720D01*
X183056157Y-51148570D01*
X183066264Y-51143465D01*
X183165215Y-51093481D01*
X183235037Y-51080621D01*
X183300728Y-51107550D01*
X183341431Y-51165720D01*
X183348025Y-51205947D01*
X183348025Y-56776271D01*
X183328023Y-56844392D01*
X183274367Y-56890885D01*
X183222025Y-56902271D01*
X182747992Y-56902271D01*
X182747222Y-56902269D01*
X182677069Y-56901840D01*
X182677063Y-56901840D01*
X182672583Y-56901813D01*
X182588493Y-56913331D01*
X182532724Y-56920970D01*
X182532720Y-56920971D01*
X182528273Y-56921580D01*
X182390564Y-56960937D01*
X182257602Y-57020414D01*
X182253820Y-57022800D01*
X182253813Y-57022804D01*
X182175834Y-57072006D01*
X182136474Y-57096840D01*
X182025548Y-57191246D01*
X181930740Y-57298597D01*
X181928285Y-57302334D01*
X181928283Y-57302337D01*
X181903071Y-57340719D01*
X181850774Y-57420334D01*
X181848869Y-57424391D01*
X181848867Y-57424395D01*
X181809812Y-57507579D01*
X181789905Y-57549979D01*
X181788596Y-57554262D01*
X181788594Y-57554266D01*
X181750602Y-57678533D01*
X181747317Y-57689277D01*
X181725283Y-57830795D01*
X181725228Y-57835262D01*
X181725228Y-57835267D01*
X181725102Y-57845592D01*
X181723503Y-57976438D01*
X181724063Y-57980723D01*
X181724271Y-57987760D01*
X181724271Y-58377047D01*
X181724273Y-58377047D01*
X181724682Y-58380014D01*
X181723504Y-58476438D01*
X181724085Y-58480880D01*
X181724085Y-58480883D01*
X181730181Y-58527500D01*
X181742074Y-58618452D01*
X181781245Y-58758748D01*
X181838928Y-58889841D01*
X181915897Y-59013496D01*
X181918779Y-59016924D01*
X181918780Y-59016926D01*
X181999951Y-59113491D01*
X182028472Y-59178507D01*
X182029500Y-59194566D01*
X182029500Y-67647088D01*
X182029208Y-67655658D01*
X182025275Y-67713352D01*
X182026580Y-67720829D01*
X182026580Y-67720830D01*
X182036261Y-67776299D01*
X182037223Y-67782821D01*
X182044898Y-67846242D01*
X182047581Y-67853343D01*
X182048222Y-67855952D01*
X182052685Y-67872262D01*
X182053450Y-67874798D01*
X182054757Y-67882284D01*
X182057811Y-67889241D01*
X182080442Y-67940795D01*
X182082933Y-67946899D01*
X182105513Y-68006656D01*
X182109817Y-68012919D01*
X182111054Y-68015285D01*
X182119299Y-68030097D01*
X182120632Y-68032351D01*
X182123685Y-68039305D01*
X182128307Y-68045328D01*
X182162579Y-68089991D01*
X182166459Y-68095332D01*
X182198339Y-68141720D01*
X182198344Y-68141725D01*
X182202643Y-68147981D01*
X182208313Y-68153032D01*
X182208314Y-68153034D01*
X182249170Y-68189435D01*
X182254446Y-68194416D01*
X197090550Y-83030520D01*
X197096404Y-83036785D01*
X197134439Y-83080385D01*
X197140657Y-83084755D01*
X197186697Y-83117112D01*
X197191993Y-83121045D01*
X197242282Y-83160477D01*
X197249204Y-83163602D01*
X197251452Y-83164964D01*
X197266185Y-83173368D01*
X197268524Y-83174622D01*
X197274739Y-83178990D01*
X197281815Y-83181749D01*
X197281819Y-83181751D01*
X197334274Y-83202202D01*
X197340352Y-83204757D01*
X197398574Y-83231045D01*
X197406045Y-83232429D01*
X197408599Y-83233230D01*
X197424878Y-83237867D01*
X197427433Y-83238523D01*
X197434509Y-83241282D01*
X197455262Y-83244014D01*
X197497851Y-83249621D01*
X197504367Y-83250653D01*
X197557865Y-83260568D01*
X197567187Y-83262296D01*
X197574767Y-83261859D01*
X197574768Y-83261859D01*
X197629398Y-83258709D01*
X197636651Y-83258500D01*
X206473088Y-83258500D01*
X206481658Y-83258792D01*
X206531776Y-83262209D01*
X206531780Y-83262209D01*
X206539352Y-83262725D01*
X206546829Y-83261420D01*
X206546830Y-83261420D01*
X206573308Y-83256799D01*
X206602303Y-83251738D01*
X206608821Y-83250777D01*
X206672242Y-83243102D01*
X206679343Y-83240419D01*
X206681952Y-83239778D01*
X206698262Y-83235315D01*
X206700798Y-83234550D01*
X206708284Y-83233243D01*
X206766800Y-83207556D01*
X206772904Y-83205065D01*
X206773717Y-83204758D01*
X206832656Y-83182487D01*
X206838919Y-83178183D01*
X206841285Y-83176946D01*
X206856097Y-83168701D01*
X206858351Y-83167368D01*
X206865305Y-83164315D01*
X206916002Y-83125413D01*
X206921332Y-83121541D01*
X206967720Y-83089661D01*
X206967725Y-83089656D01*
X206973981Y-83085357D01*
X207015427Y-83038839D01*
X207020408Y-83033562D01*
X207838536Y-82215435D01*
X207901433Y-82181284D01*
X208054288Y-82148794D01*
X208060319Y-82146109D01*
X208222722Y-82073803D01*
X208222724Y-82073802D01*
X208228752Y-82071118D01*
X208383253Y-81958866D01*
X208511040Y-81816944D01*
X208606527Y-81651556D01*
X208665542Y-81469928D01*
X208685504Y-81280000D01*
X208665542Y-81090072D01*
X208606527Y-80908444D01*
X208511040Y-80743056D01*
X208383253Y-80601134D01*
X208228752Y-80488882D01*
X208222724Y-80486198D01*
X208222722Y-80486197D01*
X208060319Y-80413891D01*
X208060318Y-80413891D01*
X208054288Y-80411206D01*
X207960888Y-80391353D01*
X207873944Y-80372872D01*
X207873939Y-80372872D01*
X207867487Y-80371500D01*
X207676513Y-80371500D01*
X207670061Y-80372872D01*
X207670056Y-80372872D01*
X207583112Y-80391353D01*
X207489712Y-80411206D01*
X207483682Y-80413891D01*
X207483681Y-80413891D01*
X207321278Y-80486197D01*
X207321276Y-80486198D01*
X207315248Y-80488882D01*
X207160747Y-80601134D01*
X207032960Y-80743056D01*
X206937473Y-80908444D01*
X206878458Y-81090072D01*
X206877768Y-81096635D01*
X206877768Y-81096637D01*
X206873550Y-81136770D01*
X206846537Y-81202427D01*
X206837335Y-81212695D01*
X206245435Y-81804595D01*
X206183123Y-81838621D01*
X206156340Y-81841500D01*
X197957661Y-81841500D01*
X197889540Y-81821498D01*
X197868566Y-81804595D01*
X183483405Y-67419435D01*
X183449379Y-67357123D01*
X183446500Y-67330340D01*
X183446500Y-59555729D01*
X183466502Y-59487608D01*
X183520158Y-59441115D01*
X183572500Y-59429729D01*
X184025322Y-59429729D01*
X184027630Y-59429750D01*
X184091020Y-59430912D01*
X184118382Y-59427504D01*
X184231128Y-59413460D01*
X184231132Y-59413459D01*
X184235565Y-59412907D01*
X184373745Y-59375234D01*
X184377862Y-59373452D01*
X184377866Y-59373451D01*
X184503296Y-59319173D01*
X184503301Y-59319171D01*
X184507420Y-59317388D01*
X184629472Y-59242448D01*
X184653252Y-59222706D01*
X184738093Y-59152270D01*
X184738095Y-59152268D01*
X184741540Y-59149408D01*
X184837654Y-59043224D01*
X184919107Y-58922464D01*
X184981554Y-58793572D01*
X185025838Y-58654812D01*
X185049600Y-58513574D01*
X185056682Y-58434627D01*
X185056833Y-58422285D01*
X185051995Y-58347964D01*
X185051729Y-58339779D01*
X185051729Y-57995481D01*
X185052233Y-57984223D01*
X185056464Y-57937053D01*
X185056682Y-57934627D01*
X185056833Y-57922285D01*
X185051683Y-57843171D01*
X185031379Y-57701394D01*
X185026726Y-57685480D01*
X184991755Y-57565892D01*
X184990497Y-57561590D01*
X184931217Y-57431211D01*
X184928804Y-57427438D01*
X184928801Y-57427432D01*
X184855157Y-57312279D01*
X184855156Y-57312278D01*
X184852742Y-57308503D01*
X184795572Y-57242153D01*
X184766258Y-57177491D01*
X184765025Y-57159906D01*
X184765025Y-51206256D01*
X184785027Y-51138135D01*
X184838683Y-51091642D01*
X184908957Y-51081538D01*
X184952495Y-51096268D01*
X185010322Y-51128586D01*
X185010326Y-51128588D01*
X185015705Y-51131594D01*
X185213128Y-51195740D01*
X185419250Y-51220319D01*
X185425385Y-51219847D01*
X185425387Y-51219847D01*
X185620080Y-51204866D01*
X185620085Y-51204865D01*
X185626221Y-51204393D01*
X185632151Y-51202737D01*
X185632153Y-51202737D01*
X185764732Y-51165720D01*
X185826157Y-51148570D01*
X185836264Y-51143465D01*
X185935215Y-51093481D01*
X186005037Y-51080621D01*
X186070728Y-51107550D01*
X186111431Y-51165720D01*
X186118025Y-51205947D01*
X186118025Y-57013470D01*
X186098023Y-57081591D01*
X186073688Y-57109424D01*
X185977548Y-57191246D01*
X185882740Y-57298597D01*
X185880285Y-57302334D01*
X185880283Y-57302337D01*
X185855071Y-57340719D01*
X185802774Y-57420334D01*
X185800869Y-57424391D01*
X185800867Y-57424395D01*
X185761812Y-57507579D01*
X185741905Y-57549979D01*
X185740596Y-57554262D01*
X185740594Y-57554266D01*
X185702602Y-57678533D01*
X185699317Y-57689277D01*
X185677283Y-57830795D01*
X185677228Y-57835262D01*
X185677228Y-57835267D01*
X185677102Y-57845592D01*
X185675503Y-57976438D01*
X185676063Y-57980723D01*
X185676271Y-57987760D01*
X185676271Y-58377047D01*
X185676273Y-58377047D01*
X185676682Y-58380014D01*
X185675504Y-58476438D01*
X185676085Y-58480880D01*
X185676085Y-58480883D01*
X185682181Y-58527500D01*
X185694074Y-58618452D01*
X185733245Y-58758748D01*
X185790928Y-58889841D01*
X185867897Y-59013496D01*
X185960054Y-59123131D01*
X186068639Y-59220218D01*
X186072372Y-59222703D01*
X186072376Y-59222706D01*
X186184135Y-59297099D01*
X186187864Y-59299581D01*
X186319333Y-59362289D01*
X186323612Y-59363626D01*
X186323615Y-59363627D01*
X186355060Y-59373451D01*
X186456039Y-59404999D01*
X186460463Y-59405716D01*
X186460465Y-59405716D01*
X186497597Y-59411730D01*
X186599821Y-59428287D01*
X186666782Y-59429514D01*
X186738539Y-59430830D01*
X186738541Y-59430830D01*
X186743020Y-59430912D01*
X186747465Y-59430359D01*
X186751944Y-59430122D01*
X186751951Y-59430249D01*
X186760339Y-59429729D01*
X187190000Y-59429729D01*
X187221986Y-59427441D01*
X187256373Y-59424982D01*
X187256374Y-59424982D01*
X187263111Y-59424500D01*
X187299440Y-59413833D01*
X187352868Y-59410012D01*
X187490000Y-59429729D01*
X187977322Y-59429729D01*
X187979630Y-59429750D01*
X188043020Y-59430912D01*
X188070382Y-59427504D01*
X188183128Y-59413460D01*
X188183132Y-59413459D01*
X188187565Y-59412907D01*
X188325745Y-59375234D01*
X188329862Y-59373452D01*
X188329866Y-59373451D01*
X188455296Y-59319173D01*
X188455301Y-59319171D01*
X188459420Y-59317388D01*
X188581472Y-59242448D01*
X188610581Y-59218282D01*
X188675768Y-59190158D01*
X188745814Y-59201742D01*
X188780160Y-59226131D01*
X189057335Y-59503306D01*
X189091361Y-59565618D01*
X189093550Y-59579230D01*
X189098458Y-59625928D01*
X189157473Y-59807556D01*
X189252960Y-59972944D01*
X189380747Y-60114866D01*
X189535248Y-60227118D01*
X189541276Y-60229802D01*
X189541278Y-60229803D01*
X189703681Y-60302109D01*
X189709712Y-60304794D01*
X189803113Y-60324647D01*
X189890056Y-60343128D01*
X189890061Y-60343128D01*
X189896513Y-60344500D01*
X190087487Y-60344500D01*
X190093940Y-60343128D01*
X190093953Y-60343127D01*
X190120828Y-60337414D01*
X190191618Y-60342815D01*
X190248251Y-60385632D01*
X190272745Y-60452269D01*
X190273025Y-60460660D01*
X190273025Y-71282613D01*
X190272733Y-71291183D01*
X190268800Y-71348877D01*
X190270105Y-71356354D01*
X190270105Y-71356355D01*
X190279786Y-71411824D01*
X190280748Y-71418346D01*
X190288423Y-71481767D01*
X190291106Y-71488868D01*
X190291747Y-71491477D01*
X190296210Y-71507787D01*
X190296975Y-71510323D01*
X190298282Y-71517809D01*
X190301336Y-71524766D01*
X190323967Y-71576320D01*
X190326458Y-71582424D01*
X190349038Y-71642181D01*
X190353342Y-71648444D01*
X190354579Y-71650810D01*
X190362824Y-71665622D01*
X190364157Y-71667876D01*
X190367210Y-71674830D01*
X190371832Y-71680853D01*
X190406104Y-71725516D01*
X190409984Y-71730857D01*
X190441864Y-71777245D01*
X190441869Y-71777250D01*
X190446168Y-71783506D01*
X190451838Y-71788557D01*
X190451839Y-71788559D01*
X190492695Y-71824960D01*
X190497971Y-71829941D01*
X196915335Y-78247306D01*
X196949361Y-78309618D01*
X196951550Y-78323230D01*
X196956458Y-78369928D01*
X197015473Y-78551556D01*
X197110960Y-78716944D01*
X197238747Y-78858866D01*
X197393248Y-78971118D01*
X197399276Y-78973802D01*
X197399278Y-78973803D01*
X197561681Y-79046109D01*
X197567712Y-79048794D01*
X197661112Y-79068647D01*
X197748056Y-79087128D01*
X197748061Y-79087128D01*
X197754513Y-79088500D01*
X197945487Y-79088500D01*
X197951939Y-79087128D01*
X197951944Y-79087128D01*
X198038888Y-79068647D01*
X198132288Y-79048794D01*
X198138319Y-79046109D01*
X198300722Y-78973803D01*
X198300724Y-78973802D01*
X198306752Y-78971118D01*
X198461253Y-78858866D01*
X198589040Y-78716944D01*
X198684527Y-78551556D01*
X198743542Y-78369928D01*
X198763504Y-78180000D01*
X198743542Y-77990072D01*
X198684527Y-77808444D01*
X198589040Y-77643056D01*
X198461253Y-77501134D01*
X198306752Y-77388882D01*
X198300724Y-77386198D01*
X198300722Y-77386197D01*
X198138319Y-77313891D01*
X198138318Y-77313891D01*
X198132288Y-77311206D01*
X197979431Y-77278715D01*
X197916533Y-77244563D01*
X197431828Y-76759858D01*
X197397802Y-76697546D01*
X197402867Y-76626731D01*
X197445414Y-76569895D01*
X197511934Y-76545084D01*
X197572172Y-76555656D01*
X197583712Y-76560794D01*
X197677113Y-76580647D01*
X197764056Y-76599128D01*
X197764061Y-76599128D01*
X197770513Y-76600500D01*
X197961487Y-76600500D01*
X197967939Y-76599128D01*
X197967944Y-76599128D01*
X198054887Y-76580647D01*
X198148288Y-76560794D01*
X198154319Y-76558109D01*
X198316722Y-76485803D01*
X198316724Y-76485802D01*
X198322752Y-76483118D01*
X198477253Y-76370866D01*
X198605040Y-76228944D01*
X198700527Y-76063556D01*
X198759542Y-75881928D01*
X198779504Y-75692000D01*
X198759542Y-75502072D01*
X198700527Y-75320444D01*
X198605040Y-75155056D01*
X198477253Y-75013134D01*
X198322752Y-74900882D01*
X198316724Y-74898198D01*
X198316722Y-74898197D01*
X198154319Y-74825891D01*
X198154318Y-74825891D01*
X198148288Y-74823206D01*
X197995431Y-74790715D01*
X197932533Y-74756563D01*
X197361868Y-74185898D01*
X197327842Y-74123586D01*
X197332907Y-74052771D01*
X197375454Y-73995935D01*
X197441974Y-73971124D01*
X197477160Y-73973556D01*
X197588056Y-73997128D01*
X197588061Y-73997128D01*
X197594513Y-73998500D01*
X197785487Y-73998500D01*
X197791939Y-73997128D01*
X197791944Y-73997128D01*
X197878888Y-73978647D01*
X197972288Y-73958794D01*
X197978319Y-73956109D01*
X198140722Y-73883803D01*
X198140724Y-73883802D01*
X198146752Y-73881118D01*
X198301253Y-73768866D01*
X198429040Y-73626944D01*
X198524527Y-73461556D01*
X198583542Y-73279928D01*
X198603504Y-73090000D01*
X198583542Y-72900072D01*
X198524527Y-72718444D01*
X198429040Y-72553056D01*
X198301253Y-72411134D01*
X198146752Y-72298882D01*
X198140724Y-72296198D01*
X198140722Y-72296197D01*
X197978319Y-72223891D01*
X197978318Y-72223891D01*
X197972288Y-72221206D01*
X197819431Y-72188715D01*
X197756533Y-72154563D01*
X194496930Y-68894960D01*
X194462904Y-68832648D01*
X194460025Y-68805865D01*
X194460025Y-65455812D01*
X202297805Y-65455812D01*
X202298784Y-65461509D01*
X202298784Y-65461510D01*
X202303991Y-65491810D01*
X202333862Y-65665654D01*
X202407556Y-65865412D01*
X202516420Y-66048394D01*
X202656806Y-66208474D01*
X202824014Y-66340290D01*
X202829125Y-66342979D01*
X202829128Y-66342981D01*
X202932642Y-66397443D01*
X203012443Y-66439428D01*
X203017964Y-66441142D01*
X203017968Y-66441144D01*
X203188304Y-66494034D01*
X203215783Y-66502567D01*
X203388663Y-66523028D01*
X203511694Y-66523028D01*
X203597326Y-66515160D01*
X203663951Y-66509038D01*
X203663954Y-66509037D01*
X203669705Y-66508509D01*
X203690774Y-66502567D01*
X203869070Y-66452282D01*
X203869072Y-66452281D01*
X203874629Y-66450714D01*
X203879804Y-66448162D01*
X203879809Y-66448160D01*
X204060408Y-66359098D01*
X204065589Y-66356543D01*
X204236190Y-66229150D01*
X204380718Y-66072799D01*
X204494334Y-65892729D01*
X204573232Y-65694969D01*
X204577986Y-65671072D01*
X204613643Y-65491810D01*
X204613643Y-65491808D01*
X204614770Y-65486143D01*
X204615093Y-65461510D01*
X204617481Y-65279026D01*
X204617557Y-65273244D01*
X204612345Y-65242913D01*
X204582478Y-65069092D01*
X204582477Y-65069089D01*
X204581500Y-65063402D01*
X204507806Y-64863644D01*
X204398942Y-64680662D01*
X204258556Y-64520582D01*
X204091348Y-64388766D01*
X204086237Y-64386077D01*
X204086234Y-64386075D01*
X203982720Y-64331613D01*
X203902919Y-64289628D01*
X203897398Y-64287914D01*
X203897394Y-64287912D01*
X203705102Y-64228204D01*
X203705103Y-64228204D01*
X203699579Y-64226489D01*
X203526699Y-64206028D01*
X203403668Y-64206028D01*
X203318036Y-64213896D01*
X203251411Y-64220018D01*
X203251408Y-64220019D01*
X203245657Y-64220547D01*
X203240098Y-64222115D01*
X203240097Y-64222115D01*
X203046292Y-64276774D01*
X203046290Y-64276775D01*
X203040733Y-64278342D01*
X203035558Y-64280894D01*
X203035553Y-64280896D01*
X203012386Y-64292321D01*
X202849773Y-64372513D01*
X202679172Y-64499906D01*
X202534644Y-64656257D01*
X202421028Y-64836327D01*
X202342130Y-65034087D01*
X202341004Y-65039747D01*
X202341003Y-65039751D01*
X202336299Y-65063402D01*
X202300592Y-65242913D01*
X202300516Y-65248688D01*
X202300516Y-65248692D01*
X202300195Y-65273244D01*
X202297805Y-65455812D01*
X194460025Y-65455812D01*
X194460025Y-51395043D01*
X194978739Y-51395043D01*
X195004655Y-51609207D01*
X195006302Y-51614561D01*
X195006303Y-51614565D01*
X195026797Y-51681181D01*
X195068088Y-51815396D01*
X195070659Y-51820377D01*
X195122758Y-51921317D01*
X195167030Y-52007094D01*
X195170445Y-52011544D01*
X195294940Y-52173790D01*
X195294944Y-52173794D01*
X195298356Y-52178241D01*
X195302505Y-52182016D01*
X195453767Y-52319654D01*
X195453770Y-52319656D01*
X195457914Y-52323427D01*
X195462666Y-52326408D01*
X195635904Y-52435081D01*
X195635908Y-52435083D01*
X195640660Y-52438064D01*
X195840818Y-52518527D01*
X196052062Y-52562274D01*
X196056673Y-52562540D01*
X196056674Y-52562540D01*
X196104977Y-52565325D01*
X196104981Y-52565325D01*
X196106800Y-52565430D01*
X196246260Y-52565430D01*
X196249047Y-52565181D01*
X196249053Y-52565181D01*
X196315765Y-52559227D01*
X196406397Y-52551138D01*
X196533265Y-52516431D01*
X196609061Y-52495696D01*
X196609065Y-52495695D01*
X196614477Y-52494214D01*
X196809188Y-52401341D01*
X196984376Y-52275456D01*
X197134502Y-52120538D01*
X197234691Y-51971440D01*
X197251690Y-51946144D01*
X197251690Y-51946143D01*
X197254822Y-51941483D01*
X197275613Y-51894121D01*
X197339276Y-51749091D01*
X197341533Y-51743950D01*
X197391893Y-51534185D01*
X197401952Y-51359727D01*
X197403988Y-51324424D01*
X197403988Y-51324421D01*
X197404311Y-51318817D01*
X197382377Y-51137561D01*
X197379069Y-51110222D01*
X197379069Y-51110221D01*
X197378395Y-51104653D01*
X197375816Y-51096268D01*
X197316610Y-50903821D01*
X197314962Y-50898464D01*
X197242273Y-50757630D01*
X197218591Y-50711747D01*
X197218590Y-50711746D01*
X197216020Y-50706766D01*
X197163941Y-50638895D01*
X197088110Y-50540070D01*
X197088106Y-50540066D01*
X197084694Y-50535619D01*
X196993801Y-50452913D01*
X196929283Y-50394206D01*
X196929280Y-50394204D01*
X196925136Y-50390433D01*
X196918793Y-50386454D01*
X196747146Y-50278779D01*
X196747142Y-50278777D01*
X196742390Y-50275796D01*
X196542232Y-50195333D01*
X196330988Y-50151586D01*
X196326377Y-50151320D01*
X196326376Y-50151320D01*
X196278073Y-50148535D01*
X196278069Y-50148535D01*
X196276250Y-50148430D01*
X196136790Y-50148430D01*
X196134003Y-50148679D01*
X196133997Y-50148679D01*
X196071164Y-50154287D01*
X195976653Y-50162722D01*
X195861610Y-50194194D01*
X195773989Y-50218164D01*
X195773985Y-50218165D01*
X195768573Y-50219646D01*
X195573862Y-50312519D01*
X195437988Y-50410154D01*
X195407691Y-50431925D01*
X195398674Y-50438404D01*
X195394767Y-50442436D01*
X195260963Y-50580511D01*
X195248548Y-50593322D01*
X195168970Y-50711747D01*
X195133402Y-50764678D01*
X195128228Y-50772377D01*
X195041517Y-50969910D01*
X195009168Y-51104653D01*
X194994519Y-51165673D01*
X194991157Y-51179675D01*
X194988201Y-51230939D01*
X194980937Y-51356930D01*
X194978739Y-51395043D01*
X194460025Y-51395043D01*
X194460025Y-51002992D01*
X194480027Y-50934871D01*
X194490643Y-50920661D01*
X194616634Y-50774698D01*
X194616634Y-50774697D01*
X194620658Y-50770036D01*
X194630800Y-50752184D01*
X194680162Y-50665290D01*
X194723192Y-50589544D01*
X194788715Y-50392574D01*
X194814732Y-50186628D01*
X194815041Y-50164518D01*
X194815098Y-50160452D01*
X194815098Y-50160448D01*
X194815147Y-50156930D01*
X194803559Y-50038752D01*
X194795491Y-49956464D01*
X194795490Y-49956461D01*
X194794890Y-49950338D01*
X194748695Y-49797331D01*
X194736677Y-49757523D01*
X194736676Y-49757520D01*
X194734893Y-49751615D01*
X194730737Y-49743798D01*
X194640334Y-49573777D01*
X194640333Y-49573775D01*
X194637438Y-49568331D01*
X194569965Y-49485601D01*
X194510135Y-49412241D01*
X194510132Y-49412238D01*
X194506240Y-49407466D01*
X194499295Y-49401720D01*
X194353016Y-49280707D01*
X194346295Y-49275147D01*
X194340878Y-49272218D01*
X194340875Y-49272216D01*
X194169115Y-49179346D01*
X194169110Y-49179344D01*
X194163695Y-49176416D01*
X193965396Y-49115032D01*
X193959271Y-49114388D01*
X193959270Y-49114388D01*
X193765079Y-49093978D01*
X193765077Y-49093978D01*
X193758950Y-49093334D01*
X193692308Y-49099399D01*
X193558361Y-49111589D01*
X193558358Y-49111590D01*
X193552222Y-49112148D01*
X193546316Y-49113886D01*
X193546312Y-49113887D01*
X193428480Y-49148567D01*
X193353085Y-49170757D01*
X193169125Y-49266929D01*
X193152146Y-49280581D01*
X193138381Y-49291648D01*
X193072759Y-49318745D01*
X193002904Y-49306062D01*
X192979112Y-49290536D01*
X192965763Y-49279493D01*
X192955592Y-49272632D01*
X192783920Y-49179811D01*
X192772613Y-49175058D01*
X192586181Y-49117347D01*
X192574169Y-49114881D01*
X192380075Y-49094481D01*
X192367807Y-49094396D01*
X192173455Y-49112083D01*
X192161406Y-49114381D01*
X191974183Y-49169484D01*
X191962815Y-49174077D01*
X191789859Y-49264496D01*
X191779597Y-49271212D01*
X191754172Y-49291654D01*
X191688550Y-49318751D01*
X191618695Y-49306068D01*
X191594903Y-49290541D01*
X191581045Y-49279076D01*
X191581039Y-49279072D01*
X191576295Y-49275147D01*
X191570874Y-49272216D01*
X191570873Y-49272215D01*
X191399115Y-49179346D01*
X191399110Y-49179344D01*
X191393695Y-49176416D01*
X191195396Y-49115032D01*
X191189271Y-49114388D01*
X191189270Y-49114388D01*
X190995079Y-49093978D01*
X190995077Y-49093978D01*
X190988950Y-49093334D01*
X190922308Y-49099399D01*
X190788361Y-49111589D01*
X190788358Y-49111590D01*
X190782222Y-49112148D01*
X190776316Y-49113886D01*
X190776312Y-49113887D01*
X190658480Y-49148567D01*
X190583085Y-49170757D01*
X190399125Y-49266929D01*
X190382146Y-49280581D01*
X190368779Y-49291328D01*
X190303157Y-49318425D01*
X190233302Y-49305742D01*
X190209515Y-49290220D01*
X190191295Y-49275147D01*
X190185874Y-49272216D01*
X190185873Y-49272215D01*
X190014115Y-49179346D01*
X190014110Y-49179344D01*
X190008695Y-49176416D01*
X189810396Y-49115032D01*
X189804271Y-49114388D01*
X189804270Y-49114388D01*
X189610079Y-49093978D01*
X189610077Y-49093978D01*
X189603950Y-49093334D01*
X189537308Y-49099399D01*
X189403361Y-49111589D01*
X189403358Y-49111590D01*
X189397222Y-49112148D01*
X189391316Y-49113886D01*
X189391312Y-49113887D01*
X189273480Y-49148567D01*
X189198085Y-49170757D01*
X189014125Y-49266929D01*
X188997146Y-49280581D01*
X188983779Y-49291328D01*
X188918157Y-49318425D01*
X188848302Y-49305742D01*
X188824515Y-49290220D01*
X188806295Y-49275147D01*
X188800874Y-49272216D01*
X188800873Y-49272215D01*
X188629115Y-49179346D01*
X188629110Y-49179344D01*
X188623695Y-49176416D01*
X188425396Y-49115032D01*
X188419271Y-49114388D01*
X188419270Y-49114388D01*
X188225079Y-49093978D01*
X188225077Y-49093978D01*
X188218950Y-49093334D01*
X188152308Y-49099399D01*
X188018361Y-49111589D01*
X188018358Y-49111590D01*
X188012222Y-49112148D01*
X188006316Y-49113886D01*
X188006312Y-49113887D01*
X187888480Y-49148567D01*
X187813085Y-49170757D01*
X187629125Y-49266929D01*
X187612146Y-49280581D01*
X187598779Y-49291328D01*
X187533157Y-49318425D01*
X187463302Y-49305742D01*
X187439515Y-49290220D01*
X187421295Y-49275147D01*
X187415874Y-49272216D01*
X187415873Y-49272215D01*
X187244115Y-49179346D01*
X187244110Y-49179344D01*
X187238695Y-49176416D01*
X187040396Y-49115032D01*
X187034271Y-49114388D01*
X187034270Y-49114388D01*
X186840079Y-49093978D01*
X186840077Y-49093978D01*
X186833950Y-49093334D01*
X186767308Y-49099399D01*
X186633361Y-49111589D01*
X186633358Y-49111590D01*
X186627222Y-49112148D01*
X186621316Y-49113886D01*
X186621312Y-49113887D01*
X186503480Y-49148567D01*
X186428085Y-49170757D01*
X186244125Y-49266929D01*
X186227146Y-49280581D01*
X186213779Y-49291328D01*
X186148157Y-49318425D01*
X186078302Y-49305742D01*
X186054515Y-49290220D01*
X186036295Y-49275147D01*
X186030874Y-49272216D01*
X186030873Y-49272215D01*
X185859115Y-49179346D01*
X185859110Y-49179344D01*
X185853695Y-49176416D01*
X185655396Y-49115032D01*
X185649271Y-49114388D01*
X185649270Y-49114388D01*
X185455079Y-49093978D01*
X185455077Y-49093978D01*
X185448950Y-49093334D01*
X185382308Y-49099399D01*
X185248361Y-49111589D01*
X185248358Y-49111590D01*
X185242222Y-49112148D01*
X185236316Y-49113886D01*
X185236312Y-49113887D01*
X185118480Y-49148567D01*
X185043085Y-49170757D01*
X184859125Y-49266929D01*
X184842146Y-49280581D01*
X184828779Y-49291328D01*
X184763157Y-49318425D01*
X184693302Y-49305742D01*
X184669515Y-49290220D01*
X184651295Y-49275147D01*
X184645874Y-49272216D01*
X184645873Y-49272215D01*
X184474115Y-49179346D01*
X184474110Y-49179344D01*
X184468695Y-49176416D01*
X184270396Y-49115032D01*
X184264271Y-49114388D01*
X184264270Y-49114388D01*
X184070079Y-49093978D01*
X184070077Y-49093978D01*
X184063950Y-49093334D01*
X183997308Y-49099399D01*
X183863361Y-49111589D01*
X183863358Y-49111590D01*
X183857222Y-49112148D01*
X183851316Y-49113886D01*
X183851312Y-49113887D01*
X183733480Y-49148567D01*
X183658085Y-49170757D01*
X183474125Y-49266929D01*
X183457146Y-49280581D01*
X183443779Y-49291328D01*
X183378157Y-49318425D01*
X183308302Y-49305742D01*
X183284515Y-49290220D01*
X183266295Y-49275147D01*
X183260874Y-49272216D01*
X183260873Y-49272215D01*
X183089115Y-49179346D01*
X183089110Y-49179344D01*
X183083695Y-49176416D01*
X182885396Y-49115032D01*
X182879271Y-49114388D01*
X182879270Y-49114388D01*
X182685079Y-49093978D01*
X182685077Y-49093978D01*
X182678950Y-49093334D01*
X182612308Y-49099399D01*
X182478361Y-49111589D01*
X182478358Y-49111590D01*
X182472222Y-49112148D01*
X182466316Y-49113886D01*
X182466312Y-49113887D01*
X182348480Y-49148567D01*
X182273085Y-49170757D01*
X182089125Y-49266929D01*
X182084325Y-49270789D01*
X182084324Y-49270789D01*
X182067032Y-49284692D01*
X181927348Y-49397001D01*
X181923390Y-49401718D01*
X181923388Y-49401720D01*
X181848070Y-49491481D01*
X181793916Y-49556019D01*
X181790952Y-49561411D01*
X181790949Y-49561415D01*
X181698732Y-49729158D01*
X181693912Y-49737925D01*
X181631146Y-49935791D01*
X181630460Y-49941908D01*
X181630459Y-49941912D01*
X181608959Y-50133593D01*
X181608007Y-50142080D01*
X178469201Y-50142080D01*
X178417265Y-50020316D01*
X178417263Y-50020313D01*
X178415841Y-50016978D01*
X178409540Y-50005930D01*
X178245733Y-49718746D01*
X178243942Y-49715606D01*
X178226949Y-49692472D01*
X178124463Y-49552956D01*
X178038543Y-49435990D01*
X178033311Y-49430359D01*
X177913160Y-49301062D01*
X177802367Y-49181834D01*
X177538544Y-48956508D01*
X177514923Y-48940635D01*
X177433864Y-48886166D01*
X177388479Y-48831570D01*
X177379816Y-48761104D01*
X177410624Y-48697140D01*
X177471123Y-48659987D01*
X177504143Y-48655584D01*
X181789047Y-48655724D01*
X198912093Y-48656283D01*
X198980213Y-48676287D01*
X199026704Y-48729944D01*
X199036806Y-48800219D01*
X199007311Y-48864799D01*
X198979049Y-48889017D01*
X198960804Y-48900462D01*
X198957968Y-48902734D01*
X198957961Y-48902739D01*
X198736250Y-49080363D01*
X198690034Y-49117389D01*
X198639491Y-49168464D01*
X198476433Y-49333239D01*
X198445991Y-49364001D01*
X198443750Y-49366859D01*
X198240175Y-49626489D01*
X198231911Y-49637028D01*
X198230018Y-49640117D01*
X198230016Y-49640120D01*
X198184986Y-49713603D01*
X198050630Y-49932851D01*
X198049105Y-49936136D01*
X198049103Y-49936140D01*
X197948921Y-50151965D01*
X197904552Y-50247550D01*
X197874111Y-50339596D01*
X197800863Y-50561077D01*
X197795612Y-50576953D01*
X197794876Y-50580508D01*
X197794875Y-50580511D01*
X197728114Y-50902889D01*
X197725255Y-50916694D01*
X197709641Y-51091642D01*
X197700330Y-51195978D01*
X197694413Y-51262271D01*
X197694508Y-51265901D01*
X197694508Y-51265902D01*
X197702688Y-51578293D01*
X197703495Y-51609101D01*
X197752381Y-51952590D01*
X197840422Y-52288183D01*
X197966452Y-52611433D01*
X197968149Y-52614638D01*
X198101638Y-52866755D01*
X198128800Y-52918056D01*
X198130850Y-52921039D01*
X198130852Y-52921042D01*
X198323258Y-53200994D01*
X198323264Y-53201001D01*
X198325315Y-53203986D01*
X198553391Y-53465435D01*
X198556076Y-53467878D01*
X198765793Y-53658705D01*
X198810006Y-53698936D01*
X199091758Y-53901396D01*
X199394913Y-54070130D01*
X199715453Y-54202902D01*
X199718947Y-54203897D01*
X199718949Y-54203898D01*
X200045628Y-54296955D01*
X200045633Y-54296956D01*
X200049129Y-54297952D01*
X200245829Y-54330163D01*
X200387937Y-54353434D01*
X200387944Y-54353435D01*
X200391518Y-54354020D01*
X200564801Y-54362192D01*
X200734456Y-54370193D01*
X200734457Y-54370193D01*
X200738083Y-54370364D01*
X200746940Y-54369760D01*
X201080598Y-54347014D01*
X201080606Y-54347013D01*
X201084229Y-54346766D01*
X201087804Y-54346103D01*
X201087807Y-54346103D01*
X201421804Y-54284200D01*
X201421808Y-54284199D01*
X201425369Y-54283539D01*
X201756981Y-54181522D01*
X202074670Y-54042066D01*
X202319036Y-53899271D01*
X202371085Y-53868856D01*
X202371087Y-53868855D01*
X202374225Y-53867021D01*
X202377134Y-53864837D01*
X202648769Y-53660888D01*
X202648773Y-53660885D01*
X202651676Y-53658705D01*
X202903344Y-53419880D01*
X203125895Y-53153713D01*
X203316378Y-52863729D01*
X203466407Y-52565430D01*
X203470642Y-52557010D01*
X203470645Y-52557002D01*
X203472269Y-52553774D01*
X203555474Y-52326408D01*
X203590254Y-52231367D01*
X203590255Y-52231363D01*
X203591502Y-52227956D01*
X203592347Y-52224434D01*
X203592350Y-52224426D01*
X203671649Y-51894121D01*
X203671650Y-51894117D01*
X203672496Y-51890592D01*
X203684169Y-51794134D01*
X203713841Y-51548934D01*
X203713841Y-51548927D01*
X203714177Y-51546155D01*
X203714730Y-51528580D01*
X203720036Y-51359727D01*
X203720124Y-51356930D01*
X203718250Y-51324424D01*
X203700361Y-51014176D01*
X203700360Y-51014171D01*
X203700152Y-51010556D01*
X203680121Y-50895784D01*
X203641125Y-50672345D01*
X203641123Y-50672338D01*
X203640501Y-50668772D01*
X203633669Y-50645705D01*
X203587019Y-50488219D01*
X203541962Y-50336110D01*
X203538021Y-50326871D01*
X203407265Y-50020316D01*
X203407263Y-50020313D01*
X203405841Y-50016978D01*
X203399540Y-50005930D01*
X203268994Y-49777059D01*
X203252618Y-49707977D01*
X203276190Y-49641007D01*
X203332226Y-49597413D01*
X203402935Y-49591035D01*
X203465868Y-49623897D01*
X203467248Y-49625318D01*
X203468169Y-49626489D01*
X203471156Y-49629340D01*
X203471674Y-49629874D01*
X203472644Y-49630941D01*
X203477051Y-49636057D01*
X203478618Y-49637978D01*
X203481401Y-49641985D01*
X203493893Y-49655089D01*
X203498323Y-49659736D01*
X203502352Y-49664169D01*
X203513448Y-49676976D01*
X203513454Y-49676982D01*
X203516387Y-49680367D01*
X203519774Y-49683305D01*
X203521065Y-49684597D01*
X203525691Y-49689480D01*
X203527323Y-49691298D01*
X203530287Y-49695160D01*
X203533808Y-49698519D01*
X203533810Y-49698521D01*
X203548041Y-49712096D01*
X203552270Y-49716326D01*
X203567072Y-49731853D01*
X203570595Y-49734627D01*
X203571905Y-49735819D01*
X203576760Y-49740478D01*
X203578500Y-49742240D01*
X203581651Y-49745965D01*
X203600222Y-49762066D01*
X203604623Y-49766070D01*
X203620128Y-49780861D01*
X203623782Y-49783467D01*
X203625167Y-49784612D01*
X203630216Y-49789017D01*
X203632108Y-49790758D01*
X203635425Y-49794321D01*
X203653241Y-49808340D01*
X203654670Y-49809464D01*
X203659289Y-49813279D01*
X203675476Y-49827313D01*
X203679244Y-49829739D01*
X203680749Y-49830867D01*
X203685988Y-49835015D01*
X203688031Y-49836722D01*
X203691514Y-49840123D01*
X203711465Y-49854334D01*
X203716262Y-49857927D01*
X203733047Y-49871134D01*
X203736928Y-49873379D01*
X203738547Y-49874476D01*
X203743948Y-49878347D01*
X203746211Y-49880061D01*
X203749849Y-49883287D01*
X203753938Y-49885914D01*
X203753945Y-49885919D01*
X203770378Y-49896476D01*
X203775372Y-49899856D01*
X203789072Y-49909614D01*
X203789087Y-49909623D01*
X203792737Y-49912223D01*
X203796729Y-49914285D01*
X203798517Y-49915375D01*
X203804059Y-49918959D01*
X203806553Y-49920665D01*
X203810342Y-49923713D01*
X203831456Y-49935882D01*
X203836619Y-49939027D01*
X203850702Y-49948074D01*
X203850706Y-49948076D01*
X203854476Y-49950498D01*
X203858543Y-49952357D01*
X203860608Y-49953485D01*
X203866245Y-49956756D01*
X203868970Y-49958433D01*
X203872908Y-49961298D01*
X203877242Y-49963524D01*
X203877247Y-49963527D01*
X203894484Y-49972380D01*
X203899836Y-49975294D01*
X203914292Y-49983626D01*
X203914300Y-49983630D01*
X203918171Y-49985861D01*
X203922320Y-49987521D01*
X203924611Y-49988633D01*
X203930337Y-49991594D01*
X203933399Y-49993279D01*
X203937469Y-49995946D01*
X203959356Y-50005872D01*
X203959484Y-50005930D01*
X203965002Y-50008597D01*
X203983732Y-50018216D01*
X203987972Y-50019679D01*
X203990527Y-50020769D01*
X203996333Y-50023422D01*
X203999718Y-50025074D01*
X204003915Y-50027540D01*
X204008444Y-50029332D01*
X204026287Y-50036392D01*
X204031970Y-50038803D01*
X204046992Y-50045616D01*
X204046995Y-50045617D01*
X204051074Y-50047467D01*
X204055372Y-50048719D01*
X204058296Y-50049802D01*
X204064151Y-50052139D01*
X204067844Y-50053721D01*
X204072159Y-50055978D01*
X204094889Y-50063700D01*
X204100650Y-50065816D01*
X204120082Y-50073505D01*
X204124438Y-50074546D01*
X204127696Y-50075574D01*
X204133586Y-50077594D01*
X204137673Y-50079109D01*
X204142089Y-50081147D01*
X204146758Y-50082479D01*
X204146770Y-50082483D01*
X204165035Y-50087692D01*
X204171002Y-50089555D01*
X204186413Y-50094790D01*
X204186421Y-50094792D01*
X204190663Y-50096233D01*
X204195068Y-50097058D01*
X204198714Y-50098014D01*
X204204618Y-50099717D01*
X204209068Y-50101119D01*
X204213583Y-50102934D01*
X204218321Y-50104033D01*
X204218325Y-50104034D01*
X204236748Y-50108306D01*
X204242835Y-50109879D01*
X204262697Y-50115543D01*
X204267140Y-50116149D01*
X204271264Y-50117014D01*
X204277167Y-50118656D01*
X204277228Y-50118422D01*
X204281933Y-50119648D01*
X204286540Y-50121236D01*
X204291335Y-50122097D01*
X204291337Y-50122097D01*
X204309810Y-50125412D01*
X204316021Y-50126689D01*
X204331688Y-50130323D01*
X204331704Y-50130326D01*
X204336057Y-50131335D01*
X204340513Y-50131717D01*
X204344953Y-50132419D01*
X204344866Y-50132968D01*
X204351225Y-50134147D01*
X204351340Y-50133593D01*
X204356099Y-50134579D01*
X204360779Y-50135933D01*
X204365607Y-50136550D01*
X204365617Y-50136552D01*
X204384185Y-50138925D01*
X204390467Y-50139889D01*
X204406222Y-50142716D01*
X204406224Y-50142716D01*
X204410636Y-50143508D01*
X204415117Y-50143667D01*
X204419567Y-50144142D01*
X204419513Y-50144647D01*
X204426575Y-50145591D01*
X204426654Y-50145078D01*
X204431459Y-50145822D01*
X204436200Y-50146936D01*
X204441051Y-50147307D01*
X204441057Y-50147308D01*
X204455630Y-50148422D01*
X204459645Y-50148729D01*
X204465986Y-50149376D01*
X204486246Y-50151965D01*
X204490732Y-50151897D01*
X204495201Y-50152147D01*
X204495175Y-50152611D01*
X204502940Y-50153252D01*
X204502989Y-50152772D01*
X204507831Y-50153271D01*
X204512622Y-50154142D01*
X204517490Y-50154266D01*
X204517492Y-50154266D01*
X204523746Y-50154425D01*
X204536073Y-50154738D01*
X204542455Y-50155063D01*
X204562783Y-50156618D01*
X204567257Y-50156323D01*
X204571738Y-50156346D01*
X204571737Y-50156580D01*
X204576813Y-50156610D01*
X204576879Y-50156620D01*
X204608439Y-50156620D01*
X204611642Y-50156661D01*
X204640063Y-50157384D01*
X204644514Y-50156862D01*
X204646914Y-50156752D01*
X204652670Y-50156620D01*
X209035197Y-50156620D01*
X209103318Y-50176622D01*
X209149811Y-50230278D01*
X209159915Y-50300552D01*
X209130421Y-50365132D01*
X209092400Y-50394887D01*
X209022650Y-50430426D01*
X209022643Y-50430430D01*
X209019709Y-50431925D01*
X209016943Y-50433721D01*
X209016940Y-50433723D01*
X208771178Y-50593322D01*
X208693710Y-50643630D01*
X208609593Y-50711747D01*
X208401919Y-50879919D01*
X208391627Y-50888253D01*
X208116769Y-51163111D01*
X208114697Y-51165669D01*
X208114694Y-51165673D01*
X208061843Y-51230939D01*
X207872146Y-51465194D01*
X207870351Y-51467957D01*
X207870351Y-51467958D01*
X207694663Y-51738496D01*
X207660441Y-51791193D01*
X207658946Y-51794127D01*
X207658942Y-51794134D01*
X207548166Y-52011544D01*
X207483971Y-52137534D01*
X207482787Y-52140619D01*
X207347982Y-52491798D01*
X207344670Y-52500425D01*
X207244065Y-52875888D01*
X207211771Y-53079780D01*
X207192573Y-53200994D01*
X207183257Y-53259811D01*
X207162914Y-53647987D01*
X207183257Y-54036163D01*
X207183770Y-54039403D01*
X207183771Y-54039411D01*
X207206048Y-54180058D01*
X207244065Y-54420086D01*
X207344670Y-54795549D01*
X207483971Y-55158440D01*
X207485469Y-55161380D01*
X207628394Y-55441885D01*
X207660441Y-55504781D01*
X207872146Y-55830780D01*
X208116769Y-56132863D01*
X208391627Y-56407721D01*
X208693710Y-56652344D01*
X208696473Y-56654139D01*
X208696474Y-56654139D01*
X208989439Y-56844392D01*
X209019708Y-56864049D01*
X209022642Y-56865544D01*
X209022649Y-56865548D01*
X209312963Y-57013470D01*
X209366050Y-57040519D01*
X209587050Y-57125353D01*
X209722874Y-57177491D01*
X209728941Y-57179820D01*
X210104404Y-57280425D01*
X210281680Y-57308503D01*
X210485079Y-57340719D01*
X210485087Y-57340720D01*
X210488327Y-57341233D01*
X210876503Y-57361576D01*
X211264679Y-57341233D01*
X211267919Y-57340720D01*
X211267927Y-57340719D01*
X211471326Y-57308503D01*
X211648602Y-57280425D01*
X212024065Y-57179820D01*
X212030133Y-57177491D01*
X212165955Y-57125353D01*
X212386956Y-57040519D01*
X212440043Y-57013470D01*
X212730357Y-56865548D01*
X212730364Y-56865544D01*
X212733298Y-56864049D01*
X212763568Y-56844392D01*
X213056532Y-56654139D01*
X213056533Y-56654139D01*
X213059296Y-56652344D01*
X213361379Y-56407721D01*
X213636237Y-56132863D01*
X213880860Y-55830780D01*
X214092565Y-55504781D01*
X214129614Y-55432067D01*
X214178362Y-55380453D01*
X214247277Y-55363387D01*
X214314479Y-55386288D01*
X214358631Y-55441885D01*
X214367881Y-55489271D01*
X214367881Y-61885005D01*
X214347879Y-61953126D01*
X214330997Y-61974080D01*
X213702593Y-62602772D01*
X213640288Y-62636811D01*
X213613477Y-62639697D01*
X212915305Y-62639697D01*
X212908779Y-62639528D01*
X212907893Y-62639482D01*
X212903061Y-62638855D01*
X212874221Y-62639588D01*
X212871545Y-62639656D01*
X212868344Y-62639697D01*
X212839868Y-62639697D01*
X212839868Y-62639588D01*
X212835520Y-62639572D01*
X212835520Y-62639847D01*
X212830660Y-62639842D01*
X212825804Y-62639462D01*
X212802364Y-62641253D01*
X212795993Y-62641576D01*
X212784264Y-62641874D01*
X212780103Y-62641980D01*
X212780102Y-62641980D01*
X212775620Y-62642094D01*
X212771204Y-62642841D01*
X212766734Y-62643274D01*
X212766690Y-62642818D01*
X212758994Y-62643358D01*
X212759018Y-62643842D01*
X212754153Y-62644084D01*
X212749287Y-62643950D01*
X212725921Y-62646932D01*
X212719609Y-62647575D01*
X212699220Y-62649133D01*
X212694841Y-62650105D01*
X212690413Y-62650763D01*
X212690341Y-62650277D01*
X212683316Y-62651130D01*
X212683367Y-62651641D01*
X212678515Y-62652129D01*
X212673656Y-62652240D01*
X212668876Y-62653097D01*
X212668868Y-62653098D01*
X212650438Y-62656403D01*
X212644149Y-62657367D01*
X212628270Y-62659393D01*
X212628254Y-62659396D01*
X212623820Y-62659962D01*
X212619509Y-62661151D01*
X212615101Y-62662036D01*
X212614994Y-62661501D01*
X212608661Y-62662596D01*
X212608746Y-62663158D01*
X212603929Y-62663888D01*
X212599075Y-62664244D01*
X212576006Y-62669588D01*
X212569812Y-62670860D01*
X212549558Y-62674492D01*
X212545303Y-62675901D01*
X212541026Y-62676986D01*
X212535107Y-62678337D01*
X212530512Y-62679270D01*
X212525688Y-62679867D01*
X212521009Y-62681200D01*
X212521010Y-62681200D01*
X212502830Y-62686380D01*
X212496739Y-62687952D01*
X212480964Y-62691606D01*
X212480959Y-62691607D01*
X212476597Y-62692618D01*
X212472419Y-62694238D01*
X212468549Y-62695430D01*
X212462631Y-62697096D01*
X212458416Y-62698172D01*
X212453620Y-62699009D01*
X212449004Y-62700575D01*
X212449006Y-62700575D01*
X212431027Y-62706676D01*
X212425063Y-62708537D01*
X212405073Y-62714233D01*
X212400975Y-62716062D01*
X212397490Y-62717329D01*
X212391584Y-62719313D01*
X212387752Y-62720495D01*
X212382992Y-62721570D01*
X212360681Y-62730391D01*
X212354898Y-62732514D01*
X212335109Y-62739230D01*
X212331101Y-62741263D01*
X212327983Y-62742575D01*
X212322104Y-62744877D01*
X212318616Y-62746143D01*
X212313916Y-62747449D01*
X212309481Y-62749459D01*
X212309475Y-62749461D01*
X212291982Y-62757388D01*
X212286308Y-62759794D01*
X212266817Y-62767500D01*
X212262916Y-62769727D01*
X212260136Y-62771062D01*
X212254305Y-62773682D01*
X212251150Y-62775005D01*
X212246517Y-62776538D01*
X212242180Y-62778764D01*
X212225020Y-62787571D01*
X212219502Y-62790235D01*
X212200303Y-62798936D01*
X212196533Y-62801341D01*
X212194068Y-62802676D01*
X212188317Y-62805604D01*
X212185406Y-62806994D01*
X212180878Y-62808740D01*
X212176672Y-62811162D01*
X212176673Y-62811162D01*
X212159842Y-62820856D01*
X212154488Y-62823769D01*
X212135682Y-62833421D01*
X212132023Y-62836013D01*
X212129856Y-62837328D01*
X212124189Y-62840568D01*
X212121546Y-62841989D01*
X212117098Y-62843956D01*
X212096606Y-62857112D01*
X212091453Y-62860248D01*
X212085312Y-62863785D01*
X212076928Y-62868613D01*
X212076923Y-62868617D01*
X212073038Y-62870854D01*
X212069503Y-62873625D01*
X212067583Y-62874921D01*
X212062024Y-62878465D01*
X212059630Y-62879905D01*
X212055269Y-62882088D01*
X212051301Y-62884913D01*
X212051299Y-62884914D01*
X212035380Y-62896247D01*
X212030375Y-62899632D01*
X212012460Y-62911133D01*
X212009067Y-62914067D01*
X212007361Y-62915342D01*
X212001943Y-62919173D01*
X211999716Y-62920662D01*
X211995476Y-62923044D01*
X211991655Y-62926049D01*
X211991652Y-62926051D01*
X211976251Y-62938163D01*
X211971438Y-62941765D01*
X211954035Y-62954155D01*
X211950783Y-62957251D01*
X211949254Y-62958513D01*
X211943991Y-62962625D01*
X211941926Y-62964152D01*
X211937804Y-62966734D01*
X211934133Y-62969915D01*
X211934128Y-62969919D01*
X211919286Y-62982782D01*
X211914668Y-62986595D01*
X211897843Y-62999827D01*
X211894749Y-63003069D01*
X211893341Y-63004348D01*
X211888264Y-63008720D01*
X211886336Y-63010293D01*
X211882337Y-63013071D01*
X211878816Y-63016429D01*
X211878808Y-63016435D01*
X211864592Y-63029991D01*
X211860155Y-63034025D01*
X211847358Y-63045115D01*
X211843967Y-63048054D01*
X211841032Y-63051437D01*
X211839738Y-63052731D01*
X211834870Y-63057344D01*
X211833011Y-63059014D01*
X211829159Y-63061971D01*
X211825805Y-63065488D01*
X211825804Y-63065489D01*
X211812228Y-63079725D01*
X211807998Y-63083955D01*
X211802002Y-63089673D01*
X211792486Y-63098747D01*
X211789717Y-63102264D01*
X211788511Y-63103590D01*
X211783870Y-63108428D01*
X211782061Y-63110216D01*
X211778350Y-63113356D01*
X211775167Y-63117029D01*
X211775165Y-63117031D01*
X211762294Y-63131884D01*
X211758256Y-63136325D01*
X211746572Y-63148576D01*
X211746568Y-63148581D01*
X211743480Y-63151819D01*
X211740881Y-63155464D01*
X211739699Y-63156895D01*
X211735299Y-63161941D01*
X211733571Y-63163819D01*
X211730009Y-63167137D01*
X211727001Y-63170962D01*
X211714867Y-63186390D01*
X211711045Y-63191018D01*
X211697028Y-63207192D01*
X211694600Y-63210965D01*
X211693484Y-63212455D01*
X211689337Y-63217696D01*
X211687621Y-63219750D01*
X211684222Y-63223233D01*
X211681401Y-63227195D01*
X211681398Y-63227199D01*
X211670032Y-63243165D01*
X211666428Y-63247980D01*
X211653224Y-63264769D01*
X211650976Y-63268658D01*
X211649882Y-63270273D01*
X211646017Y-63275668D01*
X211644298Y-63277939D01*
X211641066Y-63281585D01*
X211638433Y-63285686D01*
X211638431Y-63285689D01*
X211627893Y-63302105D01*
X211624521Y-63307091D01*
X211612151Y-63324466D01*
X211610096Y-63328447D01*
X211608975Y-63330286D01*
X211605403Y-63335815D01*
X211603714Y-63338285D01*
X211600662Y-63342082D01*
X211598229Y-63346306D01*
X211588504Y-63363189D01*
X211585380Y-63368324D01*
X211573888Y-63386225D01*
X211572029Y-63390294D01*
X211570918Y-63392330D01*
X211567648Y-63397970D01*
X211565959Y-63400715D01*
X211563093Y-63404658D01*
X211560870Y-63408990D01*
X211560866Y-63408996D01*
X211552018Y-63426237D01*
X211549114Y-63431575D01*
X211538546Y-63449922D01*
X211536878Y-63454093D01*
X211535785Y-63456348D01*
X211532817Y-63462090D01*
X211531137Y-63465145D01*
X211528469Y-63469218D01*
X211526459Y-63473652D01*
X211526459Y-63473653D01*
X211518490Y-63491237D01*
X211515826Y-63496754D01*
X211506209Y-63515493D01*
X211504748Y-63519732D01*
X211503648Y-63522311D01*
X211500995Y-63528121D01*
X211499369Y-63531456D01*
X211496897Y-63535665D01*
X211495104Y-63540200D01*
X211495103Y-63540202D01*
X211488043Y-63558057D01*
X211485636Y-63563734D01*
X211476981Y-63582833D01*
X211475728Y-63587137D01*
X211474659Y-63590027D01*
X211472322Y-63595890D01*
X211470738Y-63599591D01*
X211468478Y-63603914D01*
X211463168Y-63619560D01*
X211460778Y-63626601D01*
X211458637Y-63632430D01*
X211453981Y-63644207D01*
X211450963Y-63651841D01*
X211449923Y-63656199D01*
X211448890Y-63659474D01*
X211446876Y-63665353D01*
X211445372Y-63669412D01*
X211443334Y-63673833D01*
X211442001Y-63678512D01*
X211436797Y-63696776D01*
X211434935Y-63702742D01*
X211429696Y-63718179D01*
X211428255Y-63722426D01*
X211427432Y-63726825D01*
X211426485Y-63730442D01*
X211424784Y-63736347D01*
X211423376Y-63740821D01*
X211421564Y-63745330D01*
X211420467Y-63750066D01*
X211416202Y-63768479D01*
X211414628Y-63774575D01*
X211408965Y-63794449D01*
X211408361Y-63798885D01*
X211407499Y-63802999D01*
X211405854Y-63808879D01*
X211406100Y-63808943D01*
X211404875Y-63813649D01*
X211403288Y-63818254D01*
X211402428Y-63823050D01*
X211399110Y-63841554D01*
X211397839Y-63847746D01*
X211393191Y-63867811D01*
X211392809Y-63872274D01*
X211392110Y-63876703D01*
X211391552Y-63876615D01*
X211390383Y-63882933D01*
X211390942Y-63883049D01*
X211389954Y-63887822D01*
X211388603Y-63892496D01*
X211385611Y-63915940D01*
X211384656Y-63922162D01*
X211381035Y-63942356D01*
X211380877Y-63946847D01*
X211380402Y-63951299D01*
X211379891Y-63951245D01*
X211378955Y-63958247D01*
X211379475Y-63958327D01*
X211378729Y-63963149D01*
X211377617Y-63967881D01*
X211377247Y-63972725D01*
X211377246Y-63972731D01*
X211375825Y-63991339D01*
X211375176Y-63997701D01*
X211373157Y-64013513D01*
X211373156Y-64013523D01*
X211372589Y-64017968D01*
X211372658Y-64022454D01*
X211372408Y-64026922D01*
X211371947Y-64026896D01*
X211371311Y-64034604D01*
X211371788Y-64034653D01*
X211371290Y-64039492D01*
X211370418Y-64044285D01*
X211370294Y-64049153D01*
X211370294Y-64049156D01*
X211369919Y-64063929D01*
X211369543Y-64068250D01*
X211368356Y-64072217D01*
X211368244Y-64090528D01*
X211367943Y-64094468D01*
X211368197Y-64098306D01*
X211368197Y-64098318D01*
X211368146Y-64106651D01*
X211368113Y-64107440D01*
X211367942Y-64108538D01*
X211367942Y-64139502D01*
X211367939Y-64140324D01*
X211367934Y-64141090D01*
X211367896Y-64143468D01*
X211367178Y-64171732D01*
X211367611Y-64175421D01*
X211367699Y-64179818D01*
X211367466Y-64217872D01*
X211367850Y-64219217D01*
X211367942Y-64220562D01*
X211367970Y-77244563D01*
X211368003Y-93108690D01*
X211367834Y-93115215D01*
X211367788Y-93116107D01*
X211367161Y-93120936D01*
X211367285Y-93125806D01*
X211367880Y-93149223D01*
X211367919Y-93153195D01*
X211367527Y-93217338D01*
X211369338Y-93223674D01*
X211369970Y-93231484D01*
X211370400Y-93248382D01*
X211371148Y-93252801D01*
X211371580Y-93257266D01*
X211371126Y-93257310D01*
X211371668Y-93265019D01*
X211372148Y-93264995D01*
X211372390Y-93269859D01*
X211372256Y-93274724D01*
X211375237Y-93298085D01*
X211375882Y-93304411D01*
X211377439Y-93324785D01*
X211378410Y-93329159D01*
X211379068Y-93333592D01*
X211378585Y-93333664D01*
X211379437Y-93340682D01*
X211379946Y-93340631D01*
X211380434Y-93345482D01*
X211380545Y-93350340D01*
X211381402Y-93355122D01*
X211381403Y-93355129D01*
X211384712Y-93373588D01*
X211385675Y-93379865D01*
X211388270Y-93400196D01*
X211389463Y-93404520D01*
X211390345Y-93408914D01*
X211389795Y-93409024D01*
X211390890Y-93415350D01*
X211391464Y-93415263D01*
X211392192Y-93420069D01*
X211392549Y-93424936D01*
X211397897Y-93448022D01*
X211399162Y-93454186D01*
X211402794Y-93474442D01*
X211404201Y-93478694D01*
X211405296Y-93483009D01*
X211406648Y-93488930D01*
X211407571Y-93493476D01*
X211408170Y-93498317D01*
X211414689Y-93521199D01*
X211416253Y-93527264D01*
X211420922Y-93547417D01*
X211422544Y-93551601D01*
X211423731Y-93555455D01*
X211425396Y-93561372D01*
X211426475Y-93565599D01*
X211427312Y-93570396D01*
X211428876Y-93575005D01*
X211428877Y-93575008D01*
X211434984Y-93593003D01*
X211436844Y-93598966D01*
X211442533Y-93618934D01*
X211444360Y-93623028D01*
X211445628Y-93626516D01*
X211447606Y-93632408D01*
X211448802Y-93636284D01*
X211449872Y-93641024D01*
X211458697Y-93663347D01*
X211460822Y-93669136D01*
X211467532Y-93688909D01*
X211469556Y-93692899D01*
X211470882Y-93696050D01*
X211473184Y-93701927D01*
X211474445Y-93705402D01*
X211475751Y-93710102D01*
X211477763Y-93714541D01*
X211477764Y-93714545D01*
X211485684Y-93732023D01*
X211488093Y-93737706D01*
X211495801Y-93757202D01*
X211498027Y-93761101D01*
X211499362Y-93763882D01*
X211501981Y-93769711D01*
X211503309Y-93772881D01*
X211504841Y-93777507D01*
X211507063Y-93781838D01*
X211507067Y-93781846D01*
X211515889Y-93799036D01*
X211518543Y-93804532D01*
X211527237Y-93823717D01*
X211529653Y-93827505D01*
X211530977Y-93829949D01*
X211533909Y-93835707D01*
X211535289Y-93838600D01*
X211537045Y-93843151D01*
X211539476Y-93847371D01*
X211539478Y-93847376D01*
X211549155Y-93864177D01*
X211552068Y-93869530D01*
X211561723Y-93888342D01*
X211564311Y-93891995D01*
X211565631Y-93894171D01*
X211568871Y-93899836D01*
X211570290Y-93902474D01*
X211572258Y-93906926D01*
X211574887Y-93911021D01*
X211574890Y-93911027D01*
X211585413Y-93927418D01*
X211588551Y-93932574D01*
X211599159Y-93950991D01*
X211601918Y-93954511D01*
X211603228Y-93956452D01*
X211606767Y-93962003D01*
X211608216Y-93964412D01*
X211610393Y-93968761D01*
X211613209Y-93972716D01*
X211613217Y-93972730D01*
X211624544Y-93988640D01*
X211627922Y-93993634D01*
X211639434Y-94011566D01*
X211642368Y-94014959D01*
X211643657Y-94016684D01*
X211647484Y-94022096D01*
X211648966Y-94024313D01*
X211651349Y-94028554D01*
X211654358Y-94032380D01*
X211666468Y-94047779D01*
X211670070Y-94052592D01*
X211682460Y-94069995D01*
X211685557Y-94073247D01*
X211686823Y-94074782D01*
X211690937Y-94080047D01*
X211692457Y-94082103D01*
X211695044Y-94086232D01*
X211698232Y-94089910D01*
X211711080Y-94104736D01*
X211714901Y-94109364D01*
X211725356Y-94122658D01*
X211725361Y-94122664D01*
X211728132Y-94126187D01*
X211731372Y-94129279D01*
X211732666Y-94130704D01*
X211737029Y-94135771D01*
X211738611Y-94137710D01*
X211741386Y-94141704D01*
X211744743Y-94145224D01*
X211758308Y-94159450D01*
X211762337Y-94163882D01*
X211773426Y-94176678D01*
X211773435Y-94176687D01*
X211776365Y-94180068D01*
X211779751Y-94183004D01*
X211781045Y-94184299D01*
X211785661Y-94189169D01*
X211787319Y-94191014D01*
X211790287Y-94194881D01*
X211793817Y-94198247D01*
X211808037Y-94211806D01*
X211812272Y-94216041D01*
X211823968Y-94228306D01*
X211823973Y-94228311D01*
X211827065Y-94231553D01*
X211830582Y-94234322D01*
X211831937Y-94235554D01*
X211836782Y-94240202D01*
X211838522Y-94241963D01*
X211841670Y-94245683D01*
X211860209Y-94261749D01*
X211864627Y-94265767D01*
X211876888Y-94277458D01*
X211876894Y-94277463D01*
X211880139Y-94280557D01*
X211883790Y-94283160D01*
X211885187Y-94284314D01*
X211890236Y-94288717D01*
X211892143Y-94290471D01*
X211895456Y-94294028D01*
X211899281Y-94297036D01*
X211899283Y-94297038D01*
X211914702Y-94309165D01*
X211919325Y-94312982D01*
X211932117Y-94324067D01*
X211932124Y-94324072D01*
X211935507Y-94327004D01*
X211939275Y-94329429D01*
X211940797Y-94330569D01*
X211946029Y-94334709D01*
X211948083Y-94336424D01*
X211951565Y-94339822D01*
X211955526Y-94342641D01*
X211955530Y-94342645D01*
X211971488Y-94354004D01*
X211976285Y-94357594D01*
X211993090Y-94370810D01*
X211996981Y-94373059D01*
X211998625Y-94374173D01*
X212004019Y-94378037D01*
X212006254Y-94379729D01*
X212009908Y-94382967D01*
X212030449Y-94396153D01*
X212035441Y-94399529D01*
X212052802Y-94411888D01*
X212056789Y-94413945D01*
X212058604Y-94415052D01*
X212064134Y-94418625D01*
X212066620Y-94420325D01*
X212070415Y-94423375D01*
X212091507Y-94435523D01*
X212096665Y-94438661D01*
X212114550Y-94450142D01*
X212118622Y-94452002D01*
X212120660Y-94453114D01*
X212126306Y-94456388D01*
X212129057Y-94458080D01*
X212132990Y-94460939D01*
X212137317Y-94463159D01*
X212137316Y-94463159D01*
X212154564Y-94472011D01*
X212159916Y-94474923D01*
X212174379Y-94483253D01*
X212174386Y-94483257D01*
X212178259Y-94485487D01*
X212182414Y-94487148D01*
X212184708Y-94488260D01*
X212190448Y-94491226D01*
X212193467Y-94492886D01*
X212197551Y-94495561D01*
X212219550Y-94505529D01*
X212225065Y-94508192D01*
X212239842Y-94515775D01*
X212243827Y-94517820D01*
X212248057Y-94519278D01*
X212250642Y-94520380D01*
X212256452Y-94523033D01*
X212259819Y-94524675D01*
X212264012Y-94527137D01*
X212268529Y-94528923D01*
X212268540Y-94528928D01*
X212286405Y-94535990D01*
X212292074Y-94538393D01*
X212311169Y-94547045D01*
X212315475Y-94548298D01*
X212318378Y-94549372D01*
X212324241Y-94551710D01*
X212327943Y-94553295D01*
X212332254Y-94555548D01*
X212336856Y-94557110D01*
X212336866Y-94557114D01*
X212354943Y-94563248D01*
X212360776Y-94565389D01*
X212376021Y-94571416D01*
X212376031Y-94571419D01*
X212380192Y-94573064D01*
X212384544Y-94574103D01*
X212387807Y-94575131D01*
X212393694Y-94577148D01*
X212397757Y-94578653D01*
X212402178Y-94580691D01*
X212425142Y-94587234D01*
X212431103Y-94589093D01*
X212446523Y-94594326D01*
X212446525Y-94594327D01*
X212450770Y-94595767D01*
X212455177Y-94596591D01*
X212458798Y-94597539D01*
X212464710Y-94599242D01*
X212469158Y-94600642D01*
X212473678Y-94602458D01*
X212478423Y-94603557D01*
X212478426Y-94603558D01*
X212496823Y-94607819D01*
X212502914Y-94609391D01*
X212518483Y-94613826D01*
X212518486Y-94613827D01*
X212522798Y-94615055D01*
X212527237Y-94615659D01*
X212531346Y-94616520D01*
X212537237Y-94618140D01*
X212537294Y-94617920D01*
X212542002Y-94619145D01*
X212546604Y-94620731D01*
X212569915Y-94624910D01*
X212576099Y-94626180D01*
X212596163Y-94630827D01*
X212600629Y-94631209D01*
X212605058Y-94631908D01*
X212604976Y-94632430D01*
X212611289Y-94633601D01*
X212611398Y-94633074D01*
X212616154Y-94634059D01*
X212620839Y-94635413D01*
X212644287Y-94638405D01*
X212650532Y-94639364D01*
X212666297Y-94642190D01*
X212666299Y-94642190D01*
X212670710Y-94642981D01*
X212675187Y-94643138D01*
X212679644Y-94643614D01*
X212679590Y-94644123D01*
X212686608Y-94645061D01*
X212686688Y-94644542D01*
X212691499Y-94645286D01*
X212696236Y-94646399D01*
X212701085Y-94646769D01*
X212701088Y-94646770D01*
X212719701Y-94648192D01*
X212726050Y-94648839D01*
X212746316Y-94651425D01*
X212750799Y-94651356D01*
X212755266Y-94651606D01*
X212755240Y-94652066D01*
X212762948Y-94652702D01*
X212762997Y-94652225D01*
X212767849Y-94652725D01*
X212772634Y-94653595D01*
X212777497Y-94653719D01*
X212777501Y-94653719D01*
X212786180Y-94653939D01*
X212796108Y-94654192D01*
X212802474Y-94654515D01*
X212822830Y-94656070D01*
X212827295Y-94655775D01*
X212831786Y-94655798D01*
X212831785Y-94656034D01*
X212836839Y-94656063D01*
X212836889Y-94656071D01*
X212868444Y-94656071D01*
X212871646Y-94656112D01*
X212895595Y-94656721D01*
X212895597Y-94656721D01*
X212900086Y-94656835D01*
X212904545Y-94656312D01*
X212906942Y-94656202D01*
X212912697Y-94656071D01*
X213613619Y-94656071D01*
X213681740Y-94676073D01*
X213702715Y-94692976D01*
X214013073Y-95003338D01*
X214198462Y-95188729D01*
X214330977Y-95321246D01*
X214365002Y-95383559D01*
X214367881Y-95410341D01*
X214367881Y-101806177D01*
X214347879Y-101874298D01*
X214294223Y-101920791D01*
X214223949Y-101930895D01*
X214159369Y-101901401D01*
X214129614Y-101863380D01*
X214094064Y-101793608D01*
X214094060Y-101793601D01*
X214092565Y-101790667D01*
X213880860Y-101464668D01*
X213636237Y-101162585D01*
X213361379Y-100887727D01*
X213059296Y-100643104D01*
X212733298Y-100431399D01*
X212730364Y-100429904D01*
X212730357Y-100429900D01*
X212389896Y-100256427D01*
X212386956Y-100254929D01*
X212024065Y-100115628D01*
X211648602Y-100015023D01*
X211444710Y-99982729D01*
X211267927Y-99954729D01*
X211267919Y-99954728D01*
X211264679Y-99954215D01*
X210876503Y-99933872D01*
X210488327Y-99954215D01*
X210485087Y-99954728D01*
X210485079Y-99954729D01*
X210308296Y-99982729D01*
X210104404Y-100015023D01*
X209728941Y-100115628D01*
X209366050Y-100254929D01*
X209363110Y-100256427D01*
X209022650Y-100429900D01*
X209022643Y-100429904D01*
X209019709Y-100431399D01*
X208693710Y-100643104D01*
X208391627Y-100887727D01*
X208116769Y-101162585D01*
X207872146Y-101464668D01*
X207660441Y-101790667D01*
X207658946Y-101793601D01*
X207658942Y-101793608D01*
X207604019Y-101901401D01*
X207483971Y-102137008D01*
X207344670Y-102499899D01*
X207244065Y-102875362D01*
X207183257Y-103259285D01*
X207162914Y-103647461D01*
X207183257Y-104035637D01*
X207244065Y-104419560D01*
X207344670Y-104795023D01*
X207483971Y-105157914D01*
X207485469Y-105160854D01*
X207628394Y-105441359D01*
X207660441Y-105504255D01*
X207872146Y-105830254D01*
X208116769Y-106132337D01*
X208391627Y-106407195D01*
X208693710Y-106651818D01*
X209019708Y-106863523D01*
X209022642Y-106865018D01*
X209022649Y-106865022D01*
X209363110Y-107038495D01*
X209366050Y-107039993D01*
X209728941Y-107179294D01*
X210104404Y-107279899D01*
X210308296Y-107312193D01*
X210485079Y-107340193D01*
X210485087Y-107340194D01*
X210488327Y-107340707D01*
X210876503Y-107361050D01*
X211264679Y-107340707D01*
X211267919Y-107340194D01*
X211267927Y-107340193D01*
X211444710Y-107312193D01*
X211648602Y-107279899D01*
X212024065Y-107179294D01*
X212386956Y-107039993D01*
X212389896Y-107038495D01*
X212730357Y-106865022D01*
X212730364Y-106865018D01*
X212733298Y-106863523D01*
X213059296Y-106651818D01*
X213361379Y-106407195D01*
X213636237Y-106132337D01*
X213880860Y-105830254D01*
X214092565Y-105504255D01*
X214129614Y-105431541D01*
X214178362Y-105379927D01*
X214247277Y-105362861D01*
X214314479Y-105385762D01*
X214358631Y-105441359D01*
X214367881Y-105488745D01*
X214367881Y-111315601D01*
X214347879Y-111383722D01*
X214294223Y-111430215D01*
X214241901Y-111441601D01*
X186188373Y-111446058D01*
X146510535Y-111452362D01*
X146442411Y-111432371D01*
X146395910Y-111378723D01*
X146384515Y-111326362D01*
X146384515Y-103647461D01*
X150162426Y-103647461D01*
X150182769Y-104035637D01*
X150243577Y-104419560D01*
X150344182Y-104795023D01*
X150483483Y-105157914D01*
X150484981Y-105160854D01*
X150627906Y-105441359D01*
X150659953Y-105504255D01*
X150871658Y-105830254D01*
X151116281Y-106132337D01*
X151391139Y-106407195D01*
X151693222Y-106651818D01*
X152019220Y-106863523D01*
X152022154Y-106865018D01*
X152022161Y-106865022D01*
X152362622Y-107038495D01*
X152365562Y-107039993D01*
X152728453Y-107179294D01*
X153103916Y-107279899D01*
X153307808Y-107312193D01*
X153484591Y-107340193D01*
X153484599Y-107340194D01*
X153487839Y-107340707D01*
X153876015Y-107361050D01*
X154264191Y-107340707D01*
X154267431Y-107340194D01*
X154267439Y-107340193D01*
X154444222Y-107312193D01*
X154648114Y-107279899D01*
X155023577Y-107179294D01*
X155386468Y-107039993D01*
X155389408Y-107038495D01*
X155729869Y-106865022D01*
X155729876Y-106865018D01*
X155732810Y-106863523D01*
X156058808Y-106651818D01*
X156360891Y-106407195D01*
X156635749Y-106132337D01*
X156880372Y-105830254D01*
X157092077Y-105504255D01*
X157124125Y-105441359D01*
X157267049Y-105160854D01*
X157268547Y-105157914D01*
X157407848Y-104795023D01*
X157508453Y-104419560D01*
X157569261Y-104035637D01*
X157589604Y-103647461D01*
X157569261Y-103259285D01*
X157508453Y-102875362D01*
X157407848Y-102499899D01*
X157268547Y-102137008D01*
X157148499Y-101901401D01*
X157093576Y-101793608D01*
X157093572Y-101793601D01*
X157092077Y-101790667D01*
X156880372Y-101464668D01*
X156635749Y-101162585D01*
X156360891Y-100887727D01*
X156058808Y-100643104D01*
X155732810Y-100431399D01*
X155729876Y-100429904D01*
X155729869Y-100429900D01*
X155389408Y-100256427D01*
X155386468Y-100254929D01*
X155023577Y-100115628D01*
X154648114Y-100015023D01*
X154444222Y-99982729D01*
X154267439Y-99954729D01*
X154267431Y-99954728D01*
X154264191Y-99954215D01*
X153876015Y-99933872D01*
X153487839Y-99954215D01*
X153484599Y-99954728D01*
X153484591Y-99954729D01*
X153307808Y-99982729D01*
X153103916Y-100015023D01*
X152728453Y-100115628D01*
X152365562Y-100254929D01*
X152362622Y-100256427D01*
X152022162Y-100429900D01*
X152022155Y-100429904D01*
X152019221Y-100431399D01*
X151693222Y-100643104D01*
X151391139Y-100887727D01*
X151116281Y-101162585D01*
X150871658Y-101464668D01*
X150659953Y-101790667D01*
X150658458Y-101793601D01*
X150658454Y-101793608D01*
X150603531Y-101901401D01*
X150483483Y-102137008D01*
X150344182Y-102499899D01*
X150243577Y-102875362D01*
X150182769Y-103259285D01*
X150162426Y-103647461D01*
X146384515Y-103647461D01*
X146384515Y-50293041D01*
X146404517Y-50224920D01*
X146458173Y-50178427D01*
X146510414Y-50167041D01*
X149552991Y-50164659D01*
X152022629Y-50162725D01*
X152090766Y-50182674D01*
X152137301Y-50236293D01*
X152147460Y-50306559D01*
X152118017Y-50371163D01*
X152079930Y-50400992D01*
X152022170Y-50430422D01*
X152022164Y-50430425D01*
X152019221Y-50431925D01*
X152016455Y-50433721D01*
X152016452Y-50433723D01*
X151770690Y-50593322D01*
X151693222Y-50643630D01*
X151609105Y-50711747D01*
X151401431Y-50879919D01*
X151391139Y-50888253D01*
X151116281Y-51163111D01*
X151114209Y-51165669D01*
X151114206Y-51165673D01*
X151061355Y-51230939D01*
X150871658Y-51465194D01*
X150869863Y-51467957D01*
X150869863Y-51467958D01*
X150694175Y-51738496D01*
X150659953Y-51791193D01*
X150658458Y-51794127D01*
X150658454Y-51794134D01*
X150547678Y-52011544D01*
X150483483Y-52137534D01*
X150482299Y-52140619D01*
X150347494Y-52491798D01*
X150344182Y-52500425D01*
X150243577Y-52875888D01*
X150211283Y-53079780D01*
X150192085Y-53200994D01*
X150182769Y-53259811D01*
X150162426Y-53647987D01*
X150182769Y-54036163D01*
X150183282Y-54039403D01*
X150183283Y-54039411D01*
X150205560Y-54180058D01*
X150243577Y-54420086D01*
X150344182Y-54795549D01*
X150483483Y-55158440D01*
X150484981Y-55161380D01*
X150627906Y-55441885D01*
X150659953Y-55504781D01*
X150871658Y-55830780D01*
X151116281Y-56132863D01*
X151391139Y-56407721D01*
X151693222Y-56652344D01*
X151695985Y-56654139D01*
X151695986Y-56654139D01*
X151988951Y-56844392D01*
X152019220Y-56864049D01*
X152022154Y-56865544D01*
X152022161Y-56865548D01*
X152312475Y-57013470D01*
X152365562Y-57040519D01*
X152586562Y-57125353D01*
X152722386Y-57177491D01*
X152728453Y-57179820D01*
X153103916Y-57280425D01*
X153281192Y-57308503D01*
X153484591Y-57340719D01*
X153484599Y-57340720D01*
X153487839Y-57341233D01*
X153876015Y-57361576D01*
X154264191Y-57341233D01*
X154267431Y-57340720D01*
X154267439Y-57340719D01*
X154470838Y-57308503D01*
X154648114Y-57280425D01*
X155023577Y-57179820D01*
X155029645Y-57177491D01*
X155165467Y-57125353D01*
X155386468Y-57040519D01*
X155439555Y-57013470D01*
X155729869Y-56865548D01*
X155729876Y-56865544D01*
X155732810Y-56864049D01*
X155763080Y-56844392D01*
X156056044Y-56654139D01*
X156056045Y-56654139D01*
X156058808Y-56652344D01*
X156360891Y-56407721D01*
X156635749Y-56132863D01*
X156880372Y-55830780D01*
X157092077Y-55504781D01*
X157124125Y-55441885D01*
X157267049Y-55161380D01*
X157268547Y-55158440D01*
X157407848Y-54795549D01*
X157508453Y-54420086D01*
X157546470Y-54180058D01*
X157568747Y-54039411D01*
X157568748Y-54039403D01*
X157569261Y-54036163D01*
X157589604Y-53647987D01*
X157569261Y-53259811D01*
X157559946Y-53200994D01*
X157540747Y-53079780D01*
X157508453Y-52875888D01*
X157407848Y-52500425D01*
X157404537Y-52491798D01*
X157269731Y-52140619D01*
X157268547Y-52137534D01*
X157204352Y-52011544D01*
X157093576Y-51794134D01*
X157093572Y-51794127D01*
X157092077Y-51791193D01*
X157057856Y-51738496D01*
X156882167Y-51467958D01*
X156882167Y-51467957D01*
X156880372Y-51465194D01*
X156690675Y-51230939D01*
X156637824Y-51165673D01*
X156637821Y-51165669D01*
X156635749Y-51163111D01*
X156360891Y-50888253D01*
X156350600Y-50879919D01*
X156142925Y-50711747D01*
X156058808Y-50643630D01*
X155987358Y-50597230D01*
X155735579Y-50433723D01*
X155735576Y-50433721D01*
X155732810Y-50431925D01*
X155729876Y-50430430D01*
X155729869Y-50430426D01*
X155666413Y-50398094D01*
X155614798Y-50349346D01*
X155597732Y-50280431D01*
X155620633Y-50213229D01*
X155676230Y-50169077D01*
X155723517Y-50159827D01*
X156357607Y-50159330D01*
X159837805Y-50156605D01*
X159844409Y-50156774D01*
X159844785Y-50156793D01*
X159849609Y-50157419D01*
X159881126Y-50156616D01*
X159884335Y-50156575D01*
X159912772Y-50156575D01*
X159912772Y-50156687D01*
X159917141Y-50156701D01*
X159917141Y-50156424D01*
X159922015Y-50156428D01*
X159926865Y-50156808D01*
X159931712Y-50156437D01*
X159931715Y-50156437D01*
X159950264Y-50155017D01*
X159956672Y-50154691D01*
X159956869Y-50154686D01*
X159977012Y-50154173D01*
X159981438Y-50153424D01*
X159985894Y-50152992D01*
X159985938Y-50153447D01*
X159993681Y-50152903D01*
X159993657Y-50152421D01*
X159998524Y-50152178D01*
X160003387Y-50152311D01*
X160008212Y-50151694D01*
X160008217Y-50151694D01*
X160026703Y-50149331D01*
X160033061Y-50148682D01*
X160048932Y-50147467D01*
X160048944Y-50147465D01*
X160053415Y-50147123D01*
X160057796Y-50146150D01*
X160062220Y-50145492D01*
X160062294Y-50145990D01*
X160069358Y-50145131D01*
X160069305Y-50144607D01*
X160074144Y-50144119D01*
X160079017Y-50144006D01*
X160102238Y-50139836D01*
X160108510Y-50138873D01*
X160109630Y-50138730D01*
X160128826Y-50136276D01*
X160133142Y-50135084D01*
X160137545Y-50134200D01*
X160137649Y-50134718D01*
X160144015Y-50133614D01*
X160143933Y-50133071D01*
X160148745Y-50132340D01*
X160153599Y-50131983D01*
X160158337Y-50130884D01*
X160158343Y-50130883D01*
X160176659Y-50126634D01*
X160182859Y-50125359D01*
X160198685Y-50122517D01*
X160198687Y-50122517D01*
X160203089Y-50121726D01*
X160207333Y-50120320D01*
X160211663Y-50119220D01*
X160217568Y-50117870D01*
X160222143Y-50116939D01*
X160226973Y-50116340D01*
X160249835Y-50109818D01*
X160255907Y-50108249D01*
X160271687Y-50104588D01*
X160271688Y-50104588D01*
X160276053Y-50103575D01*
X160280225Y-50101956D01*
X160284097Y-50100762D01*
X160290011Y-50099095D01*
X160294246Y-50098012D01*
X160299037Y-50097175D01*
X160303642Y-50095610D01*
X160303651Y-50095608D01*
X160321653Y-50089491D01*
X160327599Y-50087634D01*
X160347565Y-50081938D01*
X160351655Y-50080111D01*
X160355156Y-50078837D01*
X160361051Y-50076855D01*
X160364904Y-50075665D01*
X160369649Y-50074592D01*
X160374172Y-50072802D01*
X160374185Y-50072798D01*
X160391941Y-50065771D01*
X160397769Y-50063629D01*
X160413275Y-50058361D01*
X160413287Y-50058356D01*
X160417528Y-50056915D01*
X160421525Y-50054886D01*
X160424629Y-50053578D01*
X160430500Y-50051277D01*
X160434018Y-50049998D01*
X160438700Y-50048696D01*
X160451668Y-50042815D01*
X160460626Y-50038752D01*
X160466300Y-50036344D01*
X160481637Y-50030274D01*
X160481641Y-50030272D01*
X160485808Y-50028623D01*
X160489700Y-50026399D01*
X160492468Y-50025069D01*
X160498302Y-50022446D01*
X160501476Y-50021115D01*
X160506092Y-50019585D01*
X160510415Y-50017365D01*
X160510426Y-50017360D01*
X160527594Y-50008542D01*
X160533119Y-50005872D01*
X160548219Y-49999024D01*
X160548227Y-49999020D01*
X160552301Y-49997172D01*
X160556073Y-49994764D01*
X160558543Y-49993425D01*
X160564300Y-49990491D01*
X160567172Y-49989119D01*
X160571709Y-49987368D01*
X160592742Y-49975246D01*
X160598067Y-49972347D01*
X160612929Y-49964714D01*
X160612937Y-49964709D01*
X160616915Y-49962666D01*
X160620566Y-49960078D01*
X160622738Y-49958759D01*
X160628410Y-49955514D01*
X160631025Y-49954107D01*
X160635469Y-49952141D01*
X160639557Y-49949516D01*
X160639567Y-49949510D01*
X160655966Y-49938976D01*
X160661115Y-49935841D01*
X160679541Y-49925221D01*
X160683072Y-49922452D01*
X160684994Y-49921154D01*
X160690553Y-49917609D01*
X160692928Y-49916180D01*
X160697284Y-49913998D01*
X160701250Y-49911173D01*
X160701254Y-49911171D01*
X160717180Y-49899829D01*
X160722181Y-49896445D01*
X160736327Y-49887359D01*
X160740103Y-49884934D01*
X160743493Y-49882002D01*
X160745206Y-49880721D01*
X160750617Y-49876893D01*
X160752817Y-49875422D01*
X160757058Y-49873038D01*
X160760883Y-49870029D01*
X160760892Y-49870023D01*
X160776294Y-49857907D01*
X160781101Y-49854308D01*
X160794851Y-49844515D01*
X160794861Y-49844507D01*
X160798517Y-49841903D01*
X160801769Y-49838805D01*
X160803275Y-49837562D01*
X160808555Y-49833436D01*
X160810592Y-49831929D01*
X160814719Y-49829344D01*
X160833260Y-49813273D01*
X160837838Y-49809492D01*
X160854694Y-49796232D01*
X160857793Y-49792984D01*
X160859170Y-49791733D01*
X160864253Y-49787355D01*
X160866167Y-49785794D01*
X160870165Y-49783016D01*
X160887967Y-49766041D01*
X160892325Y-49762078D01*
X160908563Y-49748004D01*
X160911502Y-49744614D01*
X160912750Y-49743367D01*
X160917632Y-49738741D01*
X160919488Y-49737074D01*
X160923343Y-49734115D01*
X160928594Y-49728609D01*
X160940283Y-49716352D01*
X160944511Y-49712124D01*
X160956788Y-49700417D01*
X160956791Y-49700414D01*
X160960028Y-49697327D01*
X160962795Y-49693812D01*
X160964014Y-49692472D01*
X160968665Y-49687624D01*
X160970418Y-49685892D01*
X160974132Y-49682750D01*
X160990204Y-49664209D01*
X160994228Y-49659783D01*
X160998704Y-49655089D01*
X161009036Y-49644255D01*
X161011638Y-49640606D01*
X161012770Y-49639236D01*
X161017182Y-49634177D01*
X161018914Y-49632294D01*
X161022477Y-49628977D01*
X161037639Y-49609705D01*
X161041456Y-49605084D01*
X161052538Y-49592299D01*
X161055476Y-49588910D01*
X161057902Y-49585141D01*
X161059027Y-49583640D01*
X161063173Y-49578403D01*
X161064871Y-49576371D01*
X161068272Y-49572887D01*
X161080953Y-49555083D01*
X161082468Y-49552956D01*
X161086065Y-49548152D01*
X161096513Y-49534871D01*
X161096519Y-49534863D01*
X161099286Y-49531345D01*
X161101528Y-49527469D01*
X161102643Y-49525823D01*
X161106511Y-49520426D01*
X161108191Y-49518208D01*
X161111424Y-49514562D01*
X161114054Y-49510467D01*
X161114059Y-49510461D01*
X161124619Y-49494020D01*
X161127987Y-49489043D01*
X161140370Y-49471656D01*
X161142428Y-49467670D01*
X161143526Y-49465870D01*
X161147107Y-49460332D01*
X161148791Y-49457871D01*
X161151841Y-49454079D01*
X161163999Y-49432986D01*
X161167149Y-49427812D01*
X161178635Y-49409931D01*
X161180501Y-49405848D01*
X161181593Y-49403849D01*
X161184873Y-49398197D01*
X161186558Y-49395460D01*
X161189419Y-49391527D01*
X161191645Y-49387194D01*
X161200508Y-49369939D01*
X161203403Y-49364621D01*
X161213992Y-49346250D01*
X161215660Y-49342081D01*
X161216751Y-49339833D01*
X161219722Y-49334091D01*
X161221396Y-49331049D01*
X161224062Y-49326983D01*
X161234055Y-49304953D01*
X161236708Y-49299464D01*
X161246342Y-49280707D01*
X161247807Y-49276462D01*
X161248898Y-49273905D01*
X161251555Y-49268092D01*
X161253182Y-49264759D01*
X161255657Y-49260548D01*
X161264517Y-49238162D01*
X161266925Y-49232486D01*
X161273741Y-49217461D01*
X161273741Y-49217460D01*
X161275589Y-49213387D01*
X161276841Y-49209093D01*
X161277910Y-49206205D01*
X161280246Y-49200352D01*
X161281845Y-49196621D01*
X161284098Y-49192314D01*
X161286563Y-49185061D01*
X161291807Y-49169625D01*
X161293952Y-49163789D01*
X161293985Y-49163707D01*
X161301629Y-49144393D01*
X161301739Y-49143932D01*
X161340751Y-49085832D01*
X161405912Y-49057644D01*
X161421326Y-49056697D01*
X165153428Y-49056528D01*
X171966777Y-49056219D01*
X171972686Y-49056358D01*
X171977402Y-49056580D01*
X171982243Y-49057184D01*
X172012229Y-49056276D01*
X172016044Y-49056218D01*
X172042960Y-49056218D01*
X172042974Y-49056216D01*
X172042983Y-49056216D01*
X172047379Y-49055586D01*
X172047536Y-49055575D01*
X172064556Y-49055518D01*
X172071253Y-49055949D01*
X172076095Y-49055511D01*
X172076101Y-49055511D01*
X172091765Y-49054094D01*
X172099296Y-49053640D01*
X172105178Y-49053462D01*
X172112308Y-49053246D01*
X172112314Y-49053245D01*
X172116785Y-49053110D01*
X172121189Y-49052343D01*
X172121195Y-49052342D01*
X172126950Y-49051339D01*
X172137186Y-49049985D01*
X172138190Y-49049894D01*
X172150212Y-49049382D01*
X172152239Y-49049393D01*
X172154567Y-49049405D01*
X172154570Y-49049405D01*
X172159432Y-49049430D01*
X172180071Y-49046327D01*
X172187446Y-49045440D01*
X172200694Y-49044241D01*
X172200701Y-49044240D01*
X172205166Y-49043836D01*
X172214923Y-49041526D01*
X172225382Y-49039514D01*
X172225738Y-49039461D01*
X172237600Y-49038265D01*
X172241711Y-49038046D01*
X172241718Y-49038045D01*
X172246576Y-49037787D01*
X172251334Y-49036785D01*
X172251335Y-49036785D01*
X172259286Y-49035111D01*
X172267247Y-49033434D01*
X172274473Y-49032131D01*
X172287862Y-49030118D01*
X172287863Y-49030118D01*
X172292291Y-49029452D01*
X172301569Y-49026668D01*
X172323853Y-49022126D01*
X172327670Y-49021702D01*
X172327676Y-49021701D01*
X172332505Y-49021164D01*
X172337200Y-49019889D01*
X172337205Y-49019888D01*
X172353084Y-49015576D01*
X172360142Y-49013876D01*
X172373573Y-49011048D01*
X172373585Y-49011045D01*
X172377962Y-49010123D01*
X172382161Y-49008591D01*
X172382173Y-49008588D01*
X172386670Y-49006947D01*
X172408802Y-49001088D01*
X172417014Y-48999697D01*
X172421636Y-48998153D01*
X172421641Y-48998152D01*
X172437378Y-48992896D01*
X172444268Y-48990812D01*
X172457688Y-48987167D01*
X172457691Y-48987166D01*
X172462014Y-48985992D01*
X172466118Y-48984221D01*
X172466126Y-48984218D01*
X172470220Y-48982451D01*
X172492065Y-48975307D01*
X172495209Y-48974588D01*
X172499956Y-48973503D01*
X172520009Y-48965513D01*
X172526714Y-48963060D01*
X172544248Y-48957204D01*
X172552048Y-48953295D01*
X172573508Y-48944897D01*
X172581151Y-48942688D01*
X172600760Y-48933555D01*
X172607307Y-48930730D01*
X172620353Y-48925532D01*
X172620364Y-48925527D01*
X172624522Y-48923870D01*
X172632004Y-48919572D01*
X172652966Y-48909965D01*
X172655835Y-48908956D01*
X172655834Y-48908956D01*
X172660435Y-48907339D01*
X172679499Y-48897108D01*
X172685858Y-48893925D01*
X172698592Y-48887994D01*
X172698601Y-48887989D01*
X172702659Y-48886099D01*
X172709898Y-48881376D01*
X172730261Y-48870605D01*
X172733133Y-48869408D01*
X172733148Y-48869400D01*
X172737639Y-48867528D01*
X172742096Y-48864799D01*
X172756025Y-48856269D01*
X172762242Y-48852701D01*
X172774547Y-48846097D01*
X172778499Y-48843976D01*
X172782104Y-48841321D01*
X172782112Y-48841316D01*
X172785575Y-48838765D01*
X172805226Y-48826890D01*
X172812582Y-48823316D01*
X172830193Y-48811092D01*
X172836240Y-48807147D01*
X172848037Y-48799923D01*
X172848041Y-48799920D01*
X172851869Y-48797576D01*
X172855320Y-48794718D01*
X172855324Y-48794715D01*
X172858831Y-48791810D01*
X172877674Y-48778893D01*
X172885074Y-48774752D01*
X172901809Y-48761639D01*
X172907678Y-48757309D01*
X172918900Y-48749520D01*
X172922584Y-48746963D01*
X172925867Y-48743911D01*
X172925874Y-48743905D01*
X172929485Y-48740548D01*
X172947417Y-48726664D01*
X172950784Y-48724512D01*
X172950795Y-48724504D01*
X172954894Y-48721884D01*
X172970669Y-48707961D01*
X172976312Y-48703266D01*
X172990451Y-48692187D01*
X172993548Y-48688954D01*
X172994569Y-48688030D01*
X173058494Y-48657141D01*
X173079134Y-48655440D01*
X173923393Y-48655467D01*
G37*
G04 #@! TD.AperFunction*
G04 #@! TA.AperFunction,Conductor*
G36*
X192995728Y-51106989D02*
G01*
X193036431Y-51165159D01*
X193043025Y-51205386D01*
X193043025Y-60907567D01*
X193023023Y-60975688D01*
X192969367Y-61022181D01*
X192899093Y-61032285D01*
X192842964Y-61009503D01*
X192740094Y-60934763D01*
X192740093Y-60934762D01*
X192734752Y-60930882D01*
X192728724Y-60928198D01*
X192728722Y-60928197D01*
X192566319Y-60855891D01*
X192566318Y-60855891D01*
X192560288Y-60853206D01*
X192449368Y-60829629D01*
X192379944Y-60814872D01*
X192379939Y-60814872D01*
X192373487Y-60813500D01*
X192182513Y-60813500D01*
X192176061Y-60814872D01*
X192176056Y-60814872D01*
X192106632Y-60829629D01*
X191995712Y-60853206D01*
X191989682Y-60855891D01*
X191989681Y-60855891D01*
X191867274Y-60910390D01*
X191796907Y-60919824D01*
X191732610Y-60889717D01*
X191694796Y-60829629D01*
X191690025Y-60795283D01*
X191690025Y-51205682D01*
X191710027Y-51137561D01*
X191763683Y-51091068D01*
X191833957Y-51080964D01*
X191877496Y-51095694D01*
X191935528Y-51128127D01*
X191946767Y-51133037D01*
X192132377Y-51193345D01*
X192144351Y-51195978D01*
X192338149Y-51219087D01*
X192350398Y-51219344D01*
X192544992Y-51204371D01*
X192557072Y-51202240D01*
X192745031Y-51149761D01*
X192756481Y-51145320D01*
X192860215Y-51092920D01*
X192930037Y-51080060D01*
X192995728Y-51106989D01*
G37*
G04 #@! TD.AperFunction*
M02*
