M48
; DRILL file {KiCad (6.0.11)} date Wed Jan  3 02:28:45 2024
; FORMAT={-:-/ absolute / metric / decimal}
; #@! TF.CreationDate,2024-01-03T02:28:45+00:00
; #@! TF.GenerationSoftware,Kicad,Pcbnew,(6.0.11)
; #@! TF.FileFunction,Plated,1,2,PTH
FMAT,2
METRIC
; #@! TA.AperFunction,Plated,PTH,ViaDrill
T1C0.400
; #@! TA.AperFunction,Plated,PTH,ComponentDrill
T2C0.700
; #@! TA.AperFunction,Plated,PTH,ComponentDrill
T3C3.000
; #@! TA.AperFunction,Plated,PTH,ComponentDrill
T4C3.200
%
G90
G05
T1
X147.7Y-51.45
X147.73Y-61.23
X147.73Y-71.23
X147.73Y-81.23
X147.73Y-91.23
X147.73Y-101.23
X153.86Y-62.46
X153.89Y-94.89
X157.73Y-51.23
X157.73Y-106.23
X167.73Y-51.23
X167.73Y-106.23
X177.73Y-106.23
X187.73Y-106.23
X189.992Y-59.436
X192.278Y-61.722
X192.532Y-52.578
X197.358Y-85.598
X197.69Y-73.09
X197.73Y-106.23
X197.85Y-78.18
X197.866Y-75.692
X207.73Y-96.23
X207.73Y-106.23
X207.772Y-81.28
X212.73Y-61.23
X212.73Y-96.23
T2
X182.672Y-50.157
X184.057Y-50.157
X185.442Y-50.157
X186.827Y-50.157
X188.212Y-50.157
X189.597Y-50.157
X190.982Y-50.157
X192.367Y-50.157
X193.752Y-50.157
T3
X175.717Y-51.357
X200.707Y-51.357
T4
X153.876Y-53.648
X153.876Y-103.647
X210.877Y-53.648
X210.877Y-103.647
T0
M30
