G04 #@! TF.GenerationSoftware,KiCad,Pcbnew,(6.0.11)*
G04 #@! TF.CreationDate,2024-01-03T02:28:53+00:00*
G04 #@! TF.ProjectId,Tait_TM8XXX_TNC_Adapter,54616974-5f54-44d3-9858-58585f544e43,rev?*
G04 #@! TF.SameCoordinates,Original*
G04 #@! TF.FileFunction,Profile,NP*
%FSLAX46Y46*%
G04 Gerber Fmt 4.6, Leading zero omitted, Abs format (unit mm)*
G04 Created by KiCad (PCBNEW (6.0.11)) date 2024-01-03 02:28:53*
%MOMM*%
%LPD*%
G01*
G04 APERTURE LIST*
G04 #@! TA.AperFunction,Profile*
%ADD10C,0.569539*%
G04 #@! TD*
G04 APERTURE END LIST*
D10*
X212533108Y-63209019D02*
X212487728Y-63226960D01*
X212105261Y-93783143D02*
X212136726Y-93819450D01*
X214876381Y-51648014D02*
X214876381Y-51648014D01*
X212724412Y-63159749D02*
X212675246Y-63168565D01*
X160615844Y-49319747D02*
X160647324Y-49283431D01*
X214873770Y-51545374D02*
X214876381Y-51648014D01*
X204565155Y-49646814D02*
X204616493Y-49648120D01*
X204273221Y-49587240D02*
X204319643Y-49603009D01*
X160077275Y-49627685D02*
X160125571Y-49616481D01*
X213876381Y-63148197D02*
X212876381Y-63148197D01*
X211955265Y-93536298D02*
X211975329Y-93580574D01*
X204616493Y-49648120D02*
X212876381Y-49648120D01*
X203621732Y-48750107D02*
X203628108Y-48800030D01*
X214478132Y-50452784D02*
X214533988Y-50531224D01*
X211887996Y-63996167D02*
X211881620Y-64046125D01*
X160731065Y-49165827D02*
X160755200Y-49123954D01*
X160755200Y-49123954D02*
X160777340Y-49080851D01*
X211888056Y-93299601D02*
X211896871Y-93348771D01*
X214355722Y-50304567D02*
X214418668Y-50377190D01*
X172806496Y-48146930D02*
X172806496Y-48146930D01*
X203661625Y-48944848D02*
X203677382Y-48991257D01*
X204464524Y-49636555D02*
X204514478Y-49642938D01*
X203616555Y-48147937D02*
X203616555Y-48147937D01*
X211921569Y-93444492D02*
X211937324Y-93490916D01*
X172402381Y-48465003D02*
X172454880Y-48440553D01*
X203616555Y-48147937D02*
X203616555Y-48648166D01*
X211921513Y-63851276D02*
X211908006Y-63898679D01*
X212675330Y-94127202D02*
X212724504Y-94136018D01*
X211896871Y-93348771D02*
X211908064Y-93397089D01*
X213469958Y-49738299D02*
X213562795Y-49769823D01*
X160125571Y-49616481D02*
X160172957Y-49602963D01*
X213993225Y-49990492D02*
X214071669Y-50046344D01*
X212136726Y-93819450D02*
X212169869Y-93854206D01*
X212278728Y-93948535D02*
X212317947Y-93976453D01*
X212358475Y-63293265D02*
X212317898Y-63319315D01*
X172555174Y-48382995D02*
X172602638Y-48350050D01*
X212876381Y-49648120D02*
X212979026Y-49650732D01*
X203616555Y-48648166D02*
X203616555Y-48648166D01*
X214147267Y-50105805D02*
X214219894Y-50168748D01*
X160172957Y-49602963D02*
X160219368Y-49587194D01*
X160777340Y-49080851D02*
X160797420Y-49036583D01*
X214678626Y-50782335D02*
X214718771Y-50870879D01*
X160876259Y-48548221D02*
X172006447Y-48547718D01*
X203815603Y-49245675D02*
X203845327Y-49283477D01*
X212876503Y-94147571D02*
X213876442Y-94147571D01*
X160677063Y-49245630D02*
X160704998Y-49206407D01*
X211876503Y-93147617D02*
X211877808Y-93198960D01*
X214853262Y-51344169D02*
X214866021Y-51444050D01*
X212358526Y-94002503D02*
X212400402Y-94026621D01*
X213828313Y-49890124D02*
X213912064Y-49938377D01*
X212075538Y-93745349D02*
X212105261Y-93783143D01*
X213180239Y-49671238D02*
X213278553Y-49688879D01*
X212317947Y-93976453D02*
X212358526Y-94002503D01*
X172237464Y-48520056D02*
X172293507Y-48504836D01*
X160864694Y-48799985D02*
X160871076Y-48750061D01*
X214071669Y-50046344D02*
X214147267Y-50105805D01*
X214533988Y-50531224D02*
X214586107Y-50612380D01*
X212876381Y-49648120D02*
X212876381Y-49648120D01*
X214718771Y-50870879D02*
X214754671Y-50961631D01*
X214813223Y-51149249D02*
X214835620Y-51245860D01*
X212021570Y-93665554D02*
X212047620Y-93706132D01*
X212169823Y-63441562D02*
X212136680Y-63476318D01*
X211937324Y-93490916D02*
X211955265Y-93536298D01*
X214219894Y-50168748D02*
X214289421Y-50235044D01*
X212443511Y-94048744D02*
X212487789Y-94068808D01*
X203628108Y-48800030D02*
X203636925Y-48849171D01*
X212487789Y-94068808D02*
X212533174Y-94086749D01*
X212021520Y-63630214D02*
X211997401Y-63672087D01*
X160876259Y-48548221D02*
X160876259Y-48548221D01*
X211876503Y-93147617D02*
X211876503Y-93147617D01*
X172122993Y-48540693D02*
X172180571Y-48532035D01*
X172348535Y-48486458D02*
X172402381Y-48465003D01*
X211896813Y-63946997D02*
X211887996Y-63996167D01*
X212047620Y-93706132D02*
X212075538Y-93745349D01*
X172691370Y-48276236D02*
X172732307Y-48235530D01*
X212724504Y-94136018D02*
X212774467Y-94142394D01*
X172602638Y-48350050D02*
X172648092Y-48314436D01*
X213742100Y-49845863D02*
X213828313Y-49890124D01*
X203695324Y-49036628D02*
X203715389Y-49080897D01*
X211876442Y-64148151D02*
X211876442Y-64148151D01*
X213876442Y-94147571D02*
X213876442Y-94147571D01*
X212774467Y-94142394D02*
X212825154Y-94146266D01*
X203980999Y-49419194D02*
X204018793Y-49448932D01*
X160831146Y-48944803D02*
X160844665Y-48897419D01*
X203944692Y-49387715D02*
X203980999Y-49419194D01*
X159978205Y-49642892D02*
X160028131Y-49636510D01*
X211908006Y-63898679D02*
X211896813Y-63946997D01*
X204098587Y-49502932D02*
X204140460Y-49527066D01*
X214418668Y-50377190D02*
X214478132Y-50452784D01*
X172770738Y-48192401D02*
X172806496Y-48146930D01*
X203761633Y-49165873D02*
X203787684Y-49206453D01*
X159927560Y-49646768D02*
X159978205Y-49642892D01*
X212047571Y-63589636D02*
X212021520Y-63630214D01*
X160876259Y-48648120D02*
X160876259Y-48548221D01*
X211908064Y-93397089D02*
X211921569Y-93444492D01*
X211997452Y-93623681D02*
X212021570Y-93665554D01*
X214586107Y-50612380D02*
X214634362Y-50696126D01*
X212876381Y-63148197D02*
X212825043Y-63149502D01*
X203648119Y-48897465D02*
X203661625Y-48944848D01*
X160393992Y-49502886D02*
X160434574Y-49476820D01*
X212825154Y-94146266D02*
X212876503Y-94147571D01*
X204058010Y-49476866D02*
X204098587Y-49502932D01*
X160797420Y-49036583D02*
X160815377Y-48991212D01*
X172454880Y-48440553D02*
X172505866Y-48413190D01*
X214876381Y-51648014D02*
X214876381Y-62147739D01*
X160309012Y-49549159D02*
X160352117Y-49527020D01*
X204514478Y-49642938D02*
X204565155Y-49646814D01*
X212400348Y-63269147D02*
X212358475Y-63293265D01*
X172732307Y-48235530D02*
X172770738Y-48192401D01*
X212533174Y-94086749D02*
X212579601Y-94102504D01*
X212579601Y-94102504D02*
X212627008Y-94116010D01*
X172293507Y-48504836D02*
X172348535Y-48486458D01*
X160871076Y-48750061D02*
X160874953Y-48699418D01*
X160874953Y-48699418D02*
X160876259Y-48648120D01*
X211877808Y-93198960D02*
X211881680Y-93249643D01*
X212136680Y-63476318D02*
X212105215Y-63512625D01*
X212240887Y-63376956D02*
X212204580Y-63408420D01*
X211881680Y-93249643D02*
X211888056Y-93299601D01*
X212204626Y-93887348D02*
X212240933Y-93918812D01*
X212675246Y-63168565D02*
X212626931Y-63179758D01*
X160582688Y-49354515D02*
X160615844Y-49319747D01*
X160473798Y-49448886D02*
X160511601Y-49419148D01*
X145876015Y-111960963D02*
X214876381Y-111950000D01*
X172180571Y-48532035D02*
X172237464Y-48520056D01*
X204183566Y-49549205D02*
X204227841Y-49569284D01*
X213562795Y-49769823D02*
X213653551Y-49805720D01*
X214754671Y-50961631D02*
X214786197Y-51054464D01*
X213876442Y-94147571D02*
X214876381Y-95147525D01*
X160876259Y-48648120D02*
X160876259Y-48648120D01*
X172648092Y-48314436D02*
X172691370Y-48276236D01*
X211881620Y-64046125D02*
X211877747Y-64096807D01*
X203636925Y-48849171D02*
X203648119Y-48897465D01*
X204227841Y-49569284D02*
X204273221Y-49587240D01*
X160352117Y-49527020D02*
X160393992Y-49502886D01*
X213912064Y-49938377D02*
X213993225Y-49990492D01*
X203737513Y-49124000D02*
X203761633Y-49165873D01*
X212317898Y-63319315D02*
X212278681Y-63347233D01*
X160434574Y-49476820D02*
X160473798Y-49448886D01*
X203909935Y-49354560D02*
X203944692Y-49387715D01*
X160815377Y-48991212D02*
X160831146Y-48944803D01*
X213278553Y-49688879D02*
X213375168Y-49711275D01*
X160844665Y-48897419D02*
X160855868Y-48849125D01*
X212579530Y-63193264D02*
X212533108Y-63209019D01*
X211937269Y-63804852D02*
X211921513Y-63851276D01*
X214835620Y-51245860D02*
X214853262Y-51344169D01*
X212075491Y-63550419D02*
X212047571Y-63589636D01*
X214634362Y-50696126D02*
X214678626Y-50782335D01*
X172006447Y-48547718D02*
X172064897Y-48545948D01*
X212443454Y-63247024D02*
X212400348Y-63269147D01*
X159876259Y-49648075D02*
X159876259Y-49648075D01*
X203616555Y-48648166D02*
X203617859Y-48699464D01*
X213375168Y-49711275D02*
X213469958Y-49738299D01*
X160028131Y-49636510D02*
X160077275Y-49627685D01*
X160647324Y-49283431D02*
X160677063Y-49245630D01*
X212627008Y-94116010D02*
X212675330Y-94127202D01*
X212169869Y-93854206D02*
X212204626Y-93887348D01*
X212825043Y-63149502D02*
X212774365Y-63153374D01*
X212626931Y-63179758D02*
X212579530Y-63193264D01*
X172505866Y-48413190D02*
X172555174Y-48382995D01*
X204319643Y-49603009D02*
X204367043Y-49616527D01*
X213876381Y-63148197D02*
X213876381Y-63148197D01*
X172006447Y-48547718D02*
X172006447Y-48547718D01*
X160855868Y-48849125D02*
X160864694Y-48799985D01*
X214289421Y-50235044D02*
X214355722Y-50304567D01*
X211975329Y-93580574D02*
X211997452Y-93623681D01*
X203845327Y-49283477D02*
X203876792Y-49319793D01*
X212278681Y-63347233D02*
X212240887Y-63376956D01*
X212400402Y-94026621D02*
X212443511Y-94048744D01*
X160511601Y-49419148D02*
X160547919Y-49387669D01*
X214786197Y-51054464D02*
X214813223Y-51149249D01*
X204367043Y-49616527D02*
X204415358Y-49627731D01*
X203617859Y-48699464D02*
X203621732Y-48750107D01*
X212876381Y-63148197D02*
X212876381Y-63148197D01*
X214876381Y-62147739D02*
X213876381Y-63148197D01*
X212487728Y-63226960D02*
X212443454Y-63247024D01*
X145876015Y-49659038D02*
X145876015Y-111960963D01*
X203787684Y-49206453D02*
X203815603Y-49245675D01*
X213653551Y-49805720D02*
X213742100Y-49845863D01*
X212876503Y-94147571D02*
X212876503Y-94147571D01*
X204018793Y-49448932D02*
X204058010Y-49476866D01*
X203715389Y-49080897D02*
X203737513Y-49124000D01*
X213080354Y-49658480D02*
X213180239Y-49671238D01*
X211955212Y-63759470D02*
X211937269Y-63804852D01*
X211975277Y-63715194D02*
X211955212Y-63759470D01*
X214876381Y-95147525D02*
X214876381Y-111950000D01*
X211876503Y-93147617D02*
X211876503Y-93147617D01*
X204415358Y-49627731D02*
X204464524Y-49636555D01*
X204616493Y-49648120D02*
X204616493Y-49648120D01*
X214876381Y-95147525D02*
X214876381Y-95147525D01*
X145876015Y-49659038D02*
X159876259Y-49648075D01*
X211876442Y-64148151D02*
X211876503Y-93147617D01*
X160704998Y-49206407D02*
X160731065Y-49165827D01*
X203876792Y-49319793D02*
X203909935Y-49354560D01*
X160264741Y-49569238D02*
X160309012Y-49549159D01*
X172064897Y-48545948D02*
X172122993Y-48540693D01*
X203677382Y-48991257D02*
X203695324Y-49036628D01*
X214876381Y-62147739D02*
X214876381Y-62147739D01*
X160219368Y-49587194D02*
X160264741Y-49569238D01*
X160547919Y-49387669D02*
X160582688Y-49354515D01*
X214866021Y-51444050D02*
X214873770Y-51545374D01*
X212240933Y-93918812D02*
X212278728Y-93948535D01*
X211877747Y-64096807D02*
X211876442Y-64148151D01*
X212204580Y-63408420D02*
X212169823Y-63441562D01*
X212105215Y-63512625D02*
X212075491Y-63550419D01*
X172806496Y-48146930D02*
X203616555Y-48147937D01*
X159876259Y-49648075D02*
X159927560Y-49646768D01*
X212979026Y-49650732D02*
X213080354Y-49658480D01*
X204140460Y-49527066D02*
X204183566Y-49549205D01*
X212774365Y-63153374D02*
X212724412Y-63159749D01*
X211997401Y-63672087D02*
X211975277Y-63715194D01*
M02*
