G04 #@! TF.GenerationSoftware,KiCad,Pcbnew,(6.0.11)*
G04 #@! TF.CreationDate,2024-01-03T02:28:53+00:00*
G04 #@! TF.ProjectId,Tait_TM8XXX_TNC_Adapter,54616974-5f54-44d3-9858-58585f544e43,rev?*
G04 #@! TF.SameCoordinates,Original*
G04 #@! TF.FileFunction,Legend,Top*
G04 #@! TF.FilePolarity,Positive*
%FSLAX46Y46*%
G04 Gerber Fmt 4.6, Leading zero omitted, Abs format (unit mm)*
G04 Created by KiCad (PCBNEW (6.0.11)) date 2024-01-03 02:28:53*
%MOMM*%
%LPD*%
G01*
G04 APERTURE LIST*
G04 Aperture macros list*
%AMRoundRect*
0 Rectangle with rounded corners*
0 $1 Rounding radius*
0 $2 $3 $4 $5 $6 $7 $8 $9 X,Y pos of 4 corners*
0 Add a 4 corners polygon primitive as box body*
4,1,4,$2,$3,$4,$5,$6,$7,$8,$9,$2,$3,0*
0 Add four circle primitives for the rounded corners*
1,1,$1+$1,$2,$3*
1,1,$1+$1,$4,$5*
1,1,$1+$1,$6,$7*
1,1,$1+$1,$8,$9*
0 Add four rect primitives between the rounded corners*
20,1,$1+$1,$2,$3,$4,$5,0*
20,1,$1+$1,$4,$5,$6,$7,0*
20,1,$1+$1,$6,$7,$8,$9,0*
20,1,$1+$1,$8,$9,$2,$3,0*%
G04 Aperture macros list end*
%ADD10C,0.120000*%
%ADD11C,0.200000*%
%ADD12C,0.100000*%
%ADD13C,1.400000*%
%ADD14C,5.000000*%
%ADD15C,1.100000*%
%ADD16C,6.400000*%
%ADD17RoundRect,0.250000X-0.475000X0.337500X-0.475000X-0.337500X0.475000X-0.337500X0.475000X0.337500X0*%
%ADD18RoundRect,0.250000X0.475000X-0.337500X0.475000X0.337500X-0.475000X0.337500X-0.475000X-0.337500X0*%
%ADD19C,1.300000*%
%ADD20R,3.000000X1.500000*%
G04 APERTURE END LIST*
D10*
X172616525Y-55206930D02*
X203806525Y-55206930D01*
X203806525Y-55206930D02*
X203806525Y-48156930D01*
X172616525Y-48156930D02*
X203806525Y-48156930D01*
X172616525Y-48156930D02*
X172616525Y-55206930D01*
X210141503Y-59386735D02*
X210141503Y-59909239D01*
X211611503Y-59386735D02*
X211611503Y-59909239D01*
X153141015Y-59386735D02*
X153141015Y-59909239D01*
X154611015Y-59386735D02*
X154611015Y-59909239D01*
X153141015Y-97908713D02*
X153141015Y-97386209D01*
X154611015Y-97908713D02*
X154611015Y-97386209D01*
X210141503Y-97908713D02*
X210141503Y-97386209D01*
X211611503Y-97908713D02*
X211611503Y-97386209D01*
D11*
X205527681Y-65559528D02*
X205527681Y-63859528D01*
X205527681Y-91259528D02*
X200327681Y-91259528D01*
D12*
X207127681Y-66764528D02*
X207127681Y-66764528D01*
D11*
X200327681Y-91259528D02*
X200327681Y-89559528D01*
X205527681Y-63859528D02*
X200327681Y-63859528D01*
X205527681Y-88354528D02*
X205527681Y-91259528D01*
D12*
X207227681Y-66759528D02*
X207227681Y-66759528D01*
D11*
X200327681Y-63859528D02*
X200327681Y-66759528D01*
D12*
X207127681Y-66764528D02*
G75*
G03*
X207227681Y-66759528I50000J2500D01*
G01*
X207227681Y-66759528D02*
G75*
G03*
X207127681Y-66764528I-50000J-2500D01*
G01*
%LPC*%
D13*
X180231525Y-51356930D03*
D14*
X175716525Y-51356930D03*
D13*
X196191525Y-51356930D03*
D14*
X200706525Y-51356930D03*
D15*
X193751525Y-50156930D03*
X190981525Y-50156930D03*
X188211525Y-50156930D03*
X185441525Y-50156930D03*
X182671525Y-50156930D03*
X192366525Y-50156930D03*
X189596525Y-50156930D03*
X186826525Y-50156930D03*
X184056525Y-50156930D03*
D16*
X210876503Y-53647987D03*
X153876015Y-103647461D03*
D17*
X210876503Y-58610487D03*
X210876503Y-60685487D03*
D16*
X210876503Y-103647461D03*
D17*
X153876015Y-58610487D03*
X153876015Y-60685487D03*
D18*
X153876015Y-98684961D03*
X153876015Y-96609961D03*
X210876503Y-98684961D03*
X210876503Y-96609961D03*
D16*
X153876015Y-53647987D03*
D19*
X203457681Y-65364528D03*
D20*
X205177681Y-66764528D03*
X200677681Y-68034528D03*
X205177681Y-69304528D03*
X200677681Y-70574528D03*
X205177681Y-71844528D03*
X200677681Y-73114528D03*
X205177681Y-74384528D03*
X200677681Y-75654528D03*
X205177681Y-76924528D03*
X200677681Y-78194528D03*
X205177681Y-79464528D03*
X200677681Y-80734528D03*
X205177681Y-82004528D03*
X200677681Y-83274528D03*
X205177681Y-84544528D03*
X200677681Y-85814528D03*
X205177681Y-87084528D03*
X200677681Y-88354528D03*
M02*
